<svg width="173" height="78" viewBox="0 0 173 78" fill="none" xmlns="http://www.w3.org/2000/svg">
<path d="M60.9496 70.9838C60.884 76.4227 55.328 77.9275 52.4215 78H7.59428C2.01821 78 0.369048 73.3225 0.241477 70.9838C0.0592529 52.1197 -0.195861 12.885 0.241477 6.85873C0.678816 0.832425 5.85399 -0.184676 8.38691 0.0600623H46.4354C52.2302 0.0600623 53.8064 4.59251 53.8702 6.85873C54.2346 4.59251 56.2209 0.0600623 61.2503 0.0600623C66.2797 0.0600623 68.4846 4.59251 68.9584 6.85873C69.6581 1.52857 74.5345 0.105387 76.8852 0.0600623H85.9326C91.1369 0.0600623 93.9505 4.59251 94.7067 6.85873C95.5541 4.59251 97.8282 0.0600623 103.207 0.0600623C108.587 0.0600623 110.943 4.59251 112.2 6.85873C112.729 4.59251 115.562 0.0600623 120.81 0.0600623C126.058 0.0600623 129.22 4.59251 129.694 6.85873C129.891 2.48583 131.553 0.0600623 135.926 0.0600623C141.83 0.0147379 153.436 -0.0487164 159.625 0.0600623C165.813 0.168841 164.39 6.19699 162.905 9.19747L151.943 37.2131C159.524 46.7493 172.728 65.5231 172.991 70.9838C173.253 76.4445 167.779 77.9365 165.009 78H121.002C114.726 78 113.175 73.3225 113.184 70.9838C113.029 73.3225 111.178 78 105.011 78C98.845 78 97.0847 73.3225 96.9754 70.9838C97.1284 76.3139 91.3902 77.8822 88.5019 78H69.259C62.7645 78 61.0134 73.3225 60.9496 70.9838Z" fill="white"/>
<path d="M29.5888 8.49827H30.4378V10.2426H29.5888V8.49827ZM28.7398 8.49827H29.5888V10.2426H28.7398V8.49827ZM27.8908 8.49827H28.7398V10.2426H27.8908V8.49827ZM27.0418 8.49827H27.8908V10.2426H27.0418V8.49827ZM23.6457 8.49827H24.4947V10.2426H23.6457V8.49827ZM22.7967 8.49827H23.6457V10.2426H22.7967V8.49827ZM21.9477 8.49827H22.7967V10.2426H21.9477V8.49827ZM21.0987 8.49827H21.9477V10.2426H21.0987V8.49827ZM26.1928 8.49827H27.0418V10.2426H26.1928V8.49827ZM25.3438 8.49827H26.1928V10.2426H25.3438V8.49827ZM24.4947 8.49827H25.3438V10.2426H24.4947V8.49827ZM27.0418 10.2426H27.8908V11.987H27.0418V10.2426ZM27.8908 10.2426H28.7398V11.987H27.8908V10.2426ZM26.1928 10.2426H27.0418V11.987H26.1928V10.2426ZM25.3438 10.2426H26.1928V11.987H25.3438V10.2426ZM24.4947 10.2426H25.3438V11.987H24.4947V10.2426ZM23.6457 10.2426H24.4947V11.987H23.6457V10.2426ZM27.0418 11.987H27.8908V13.7314H27.0418V11.987ZM27.0418 13.7314H27.8908V15.4757H27.0418V13.7314ZM26.1928 11.987H27.0418V13.7314H26.1928V11.987ZM25.3438 11.987H26.1928V13.7314H25.3438V11.987ZM26.1928 13.7314H27.0418V15.4757H26.1928V13.7314ZM25.3438 13.7314H26.1928V15.4757H25.3438V13.7314ZM23.6457 62.5735H22.7967V60.8291H23.6457V62.5735ZM23.6457 60.8291H22.7967V59.0848H23.6457V60.8291ZM27.0418 15.4757H27.8908V17.2201H27.0418V15.4757ZM26.1928 15.4757H27.0418V17.2201H26.1928V15.4757ZM25.3438 15.4757H26.1928V17.2201H25.3438V15.4757ZM23.6457 59.0848H22.7967V57.3404H23.6457V59.0848ZM27.0418 17.2201H27.8908V18.9644H27.0418V17.2201ZM26.1928 17.2201H27.0418V18.9644H26.1928V17.2201ZM25.3438 17.2201H26.1928V18.9644H25.3438V17.2201ZM21.9477 64.3178V62.5735H22.7967V64.3178H21.9477ZM27.0418 18.9644H27.8908V20.7088H27.0418V18.9644ZM26.1928 18.9644H27.0418V20.7088H26.1928V18.9644ZM25.3438 18.9644H26.1928V20.7088H25.3438V18.9644ZM22.7967 64.3178V62.5735H23.6457V64.3178H22.7967ZM27.0418 20.7088H27.8908V22.4532H27.0418V20.7088ZM26.1928 20.7088H27.0418V22.4532H26.1928V20.7088ZM25.3438 20.7088H26.1928V22.4532H25.3438V20.7088ZM23.6457 48.6186H24.4947V50.363H23.6457V48.6186ZM29.5888 60.8291H30.4378V62.5735H29.5888V60.8291ZM35.5319 64.3178V66.0622H34.6829V64.3178H35.5319ZM25.3438 22.4532H26.1928V24.1975H25.3438V22.4532ZM23.6457 50.363H24.4947V52.1073H23.6457V50.363ZM29.5888 62.5735H30.4378V64.3178H29.5888V62.5735ZM34.6829 64.3178V66.0622H33.8339V64.3178H34.6829ZM25.3438 24.1975H26.1928V25.9419H25.3438V24.1975ZM23.6457 52.1073H24.4947V53.8517H23.6457V52.1073ZM29.5888 64.3178H30.4378V66.0622H29.5888V64.3178ZM33.8339 64.3178V66.0622H32.9849V64.3178H33.8339ZM25.3438 25.9419H26.1928V27.6862H25.3438V25.9419ZM23.6457 53.8517H24.4947V55.596H23.6457V53.8517ZM26.1928 31.175H27.0418V32.9193H26.1928V31.175ZM32.9849 64.3178V66.0622H32.1359V64.3178H32.9849ZM25.3438 27.6862H26.1928V29.4306H25.3438V27.6862ZM23.6457 55.596H24.4947V57.3404H23.6457V55.596ZM26.1928 32.9193H27.0418V34.6637H26.1928V32.9193ZM32.1359 64.3178V66.0622H31.2869V64.3178H32.1359ZM25.3438 29.4306H26.1928V31.175H25.3438V29.4306ZM23.6457 57.3404H24.4947V59.0848H23.6457V57.3404ZM26.1928 34.6637H27.0418V36.4081H26.1928V34.6637ZM31.2869 64.3178V66.0622H30.4378V64.3178H31.2869ZM25.3438 31.175H26.1928V32.9193H25.3438V31.175ZM23.6457 59.0848H24.4947V60.8291H23.6457V59.0848ZM26.1928 36.4081H27.0418V38.1524H26.1928V36.4081ZM27.8908 59.0848H28.7398V60.8291H27.8908V59.0848ZM25.3438 32.9193H26.1928V34.6637H25.3438V32.9193ZM23.6457 60.8291H24.4947V62.5735H23.6457V60.8291ZM26.1928 38.1524H27.0418V39.8968H26.1928V38.1524ZM27.8908 60.8291H28.7398V62.5735H27.8908V60.8291ZM25.3438 34.6637H26.1928V36.4081H25.3438V34.6637ZM23.6457 62.5735H24.4947V64.3178H23.6457V62.5735ZM28.7398 62.5735H29.5888V64.3178H28.7398V62.5735ZM27.8908 62.5735H28.7398V64.3178H27.8908V62.5735ZM25.3438 36.4081H26.1928V38.1524H25.3438V36.4081ZM24.4947 36.4081H25.3438V38.1524H24.4947V36.4081ZM28.7398 64.3178H29.5888V66.0622H28.7398V64.3178ZM27.8908 64.3178H28.7398V66.0622H27.8908V64.3178ZM25.3438 38.1524H26.1928V39.8968H25.3438V38.1524ZM24.4947 38.1524H25.3438V39.8968H24.4947V38.1524ZM27.0418 39.8968H27.8908V41.6411H27.0418V39.8968ZM26.1928 39.8968H27.0418V41.6411H26.1928V39.8968ZM25.3438 39.8968H26.1928V41.6411H25.3438V39.8968ZM24.4947 39.8968H25.3438V41.6411H24.4947V39.8968ZM27.0418 41.6411H27.8908V43.3855H27.0418V41.6411ZM26.1928 41.6411H27.0418V43.3855H26.1928V41.6411ZM25.3438 41.6411H26.1928V43.3855H25.3438V41.6411ZM24.4947 41.6411H25.3438V43.3855H24.4947V41.6411ZM27.0418 43.3855H27.8908V45.1299H27.0418V43.3855ZM26.1928 43.3855H27.0418V45.1299H26.1928V43.3855ZM25.3438 43.3855H26.1928V45.1299H25.3438V43.3855ZM24.4947 43.3855H25.3438V45.1299H24.4947V43.3855ZM27.0418 45.1299H27.8908V46.8742H27.0418V45.1299ZM26.1928 45.1299H27.0418V46.8742H26.1928V45.1299ZM25.3438 45.1299H26.1928V46.8742H25.3438V45.1299ZM24.4947 45.1299H25.3438V46.8742H24.4947V45.1299ZM27.0418 46.8742H27.8908V48.6186H27.0418V46.8742ZM26.1928 46.8742H27.0418V48.6186H26.1928V46.8742ZM25.3438 46.8742H26.1928V48.6186H25.3438V46.8742ZM24.4947 46.8742H25.3438V48.6186H24.4947V46.8742ZM27.0418 48.6186H27.8908V50.363H27.0418V48.6186ZM26.1928 48.6186H27.0418V50.363H26.1928V48.6186ZM25.3438 48.6186H26.1928V50.363H25.3438V48.6186ZM24.4947 48.6186H25.3438V50.363H24.4947V48.6186ZM27.0418 50.363H27.8908V52.1073H27.0418V50.363ZM26.1928 50.363H27.0418V52.1073H26.1928V50.363ZM25.3438 50.363H26.1928V52.1073H25.3438V50.363ZM24.4947 50.363H25.3438V52.1073H24.4947V50.363ZM27.0418 52.1073H27.8908V53.8517H27.0418V52.1073ZM26.1928 52.1073H27.0418V53.8517H26.1928V52.1073ZM25.3438 52.1073H26.1928V53.8517H25.3438V52.1073ZM24.4947 52.1073H25.3438V53.8517H24.4947V52.1073ZM27.0418 53.8517H27.8908V55.596H27.0418V53.8517ZM26.1928 53.8517H27.0418V55.596H26.1928V53.8517ZM25.3438 53.8517H26.1928V55.596H25.3438V53.8517ZM24.4947 53.8517H25.3438V55.596H24.4947V53.8517ZM27.0418 55.596H27.8908V57.3404H27.0418V55.596ZM26.1928 55.596H27.0418V57.3404H26.1928V55.596ZM25.3438 55.596H26.1928V57.3404H25.3438V55.596ZM24.4947 55.596H25.3438V57.3404H24.4947V55.596ZM27.0418 57.3404H27.8908V59.0848H27.0418V57.3404ZM26.1928 57.3404H27.0418V59.0848H26.1928V57.3404ZM25.3438 57.3404H26.1928V59.0848H25.3438V57.3404ZM24.4947 57.3404H25.3438V59.0848H24.4947V57.3404ZM27.0418 59.0848H27.8908V60.8291H27.0418V59.0848ZM26.1928 59.0848H27.0418V60.8291H26.1928V59.0848ZM25.3438 59.0848H26.1928V60.8291H25.3438V59.0848ZM24.4947 59.0848H25.3438V60.8291H24.4947V59.0848ZM27.0418 60.8291H27.8908V62.5735H27.0418V60.8291ZM26.1928 60.8291H27.0418V62.5735H26.1928V60.8291ZM25.3438 60.8291H26.1928V62.5735H25.3438V60.8291ZM24.4947 60.8291H25.3438V62.5735H24.4947V60.8291ZM27.0418 62.5735H27.8908V64.3178H27.0418V62.5735ZM26.1928 62.5735H27.0418V64.3178H26.1928V62.5735ZM25.3438 62.5735H26.1928V64.3178H25.3438V62.5735ZM24.4947 62.5735H25.3438V64.3178H24.4947V62.5735ZM27.0418 64.3178H27.8908V66.0622H27.0418V64.3178ZM26.1928 64.3178H27.0418V66.0622H26.1928V64.3178ZM25.3438 64.3178H26.1928V66.0622H25.3438V64.3178ZM24.4947 64.3178H25.3438V66.0622H24.4947V64.3178ZM27.0418 66.0622H27.8908V67.8066H27.0418V66.0622ZM26.1928 66.0622H27.0418V67.8066H26.1928V66.0622ZM25.3438 66.0622H26.1928V67.8066H25.3438V66.0622ZM24.4947 66.0622H25.3438V67.8066H24.4947V66.0622ZM23.6457 66.0622H24.4947V67.8066H23.6457V66.0622ZM27.0418 67.8066H27.8908V69.5509H27.0418V67.8066ZM26.1928 67.8066H27.0418V69.5509H26.1928V67.8066ZM25.3438 67.8066H26.1928V69.5509H25.3438V67.8066ZM24.4947 67.8066H25.3438V69.5509H24.4947V67.8066ZM23.6457 67.8066H24.4947V69.5509H23.6457V67.8066ZM22.7967 67.8066H23.6457V69.5509H22.7967V67.8066ZM21.9477 67.8066H22.7967V69.5509H21.9477V67.8066ZM21.0987 67.8066H21.9477V69.5509H21.0987V67.8066ZM22.7967 66.0622H23.6457V67.8066H22.7967V66.0622ZM21.9477 66.0622H22.7967V67.8066H21.9477V66.0622ZM21.0987 66.0622H21.9477V67.8066H21.0987V66.0622ZM20.2497 67.8066H21.0987V69.5509H20.2497V67.8066ZM20.2497 66.0622H21.0987V67.8066H20.2497V66.0622ZM19.4006 67.8066H20.2497V69.5509H19.4006V67.8066ZM19.4006 66.0622H20.2497V67.8066H19.4006V66.0622ZM18.5516 67.8066H19.4006V69.5509H18.5516V67.8066ZM17.7026 67.8066H18.5516V69.5509H17.7026V67.8066ZM18.5516 66.0622H19.4006V67.8066H18.5516V66.0622ZM14.3066 8.49827H15.1556V10.2426H14.3066V8.49827ZM13.4575 8.49827H14.3066V10.2426H13.4575V8.49827ZM16.0046 8.49827H16.8536V10.2426H16.0046V8.49827ZM15.1556 8.49827H16.0046V10.2426H15.1556V8.49827ZM31.2869 8.49827H32.1359V10.2426H31.2869V8.49827ZM30.4378 8.49827H31.2869V10.2426H30.4378V8.49827ZM12.6085 8.49827H13.4575V10.2426H12.6085V8.49827ZM11.7595 8.49827H12.6085V10.2426H11.7595V8.49827ZM8.36345 8.49827H9.21247V10.2426H8.36345V8.49827ZM7.51444 8.49827H8.36345V10.2426H7.51444V8.49827ZM6.66542 8.49827H7.51444V10.2426H6.66542V8.49827ZM5.81641 8.49827H6.66542V10.2426H5.81641V8.49827ZM10.9105 8.49827H11.7595V10.2426H10.9105V8.49827ZM10.0615 8.49827H10.9105V10.2426H10.0615V8.49827ZM9.21247 8.49827H10.0615V10.2426H9.21247V8.49827ZM11.7595 10.2426H12.6085V11.987H11.7595V10.2426ZM12.6085 10.2426H13.4575V11.987H12.6085V10.2426ZM10.9105 10.2426H11.7595V11.987H10.9105V10.2426ZM10.0615 10.2426H10.9105V11.987H10.0615V10.2426ZM9.21247 10.2426H10.0615V11.987H9.21247V10.2426ZM8.36345 10.2426H9.21247V11.987H8.36345V10.2426ZM11.7595 11.987H12.6085V13.7314H11.7595V11.987ZM11.7595 13.7314H12.6085V15.4757H11.7595V13.7314ZM10.9105 11.987H11.7595V13.7314H10.9105V11.987ZM10.0615 11.987H10.9105V13.7314H10.0615V11.987ZM10.9105 13.7314H11.7595V15.4757H10.9105V13.7314ZM10.0615 13.7314H10.9105V15.4757H10.0615V13.7314ZM9.21247 11.987H10.0615V13.7314H9.21247V11.987ZM9.21247 13.7314H10.0615V15.4757H9.21247V13.7314ZM11.7595 15.4757H12.6085V17.2201H11.7595V15.4757ZM10.9105 15.4757H11.7595V17.2201H10.9105V15.4757ZM10.0615 15.4757H10.9105V17.2201H10.0615V15.4757ZM9.21247 15.4757H10.0615V17.2201H9.21247V15.4757ZM11.7595 17.2201H12.6085V18.9644H11.7595V17.2201ZM10.9105 17.2201H11.7595V18.9644H10.9105V17.2201ZM10.0615 17.2201H10.9105V18.9644H10.0615V17.2201ZM9.21247 17.2201H10.0615V18.9644H9.21247V17.2201ZM11.7595 18.9644H12.6085V20.7088H11.7595V18.9644ZM10.9105 18.9644H11.7595V20.7088H10.9105V18.9644ZM10.0615 18.9644H10.9105V20.7088H10.0615V18.9644ZM9.21247 18.9644H10.0615V20.7088H9.21247V18.9644ZM11.7595 20.7088H12.6085V22.4532H11.7595V20.7088ZM10.9105 20.7088H11.7595V22.4532H10.9105V20.7088ZM10.0615 20.7088H10.9105V22.4532H10.0615V20.7088ZM9.21247 20.7088H10.0615V22.4532H9.21247V20.7088ZM11.7595 22.4532H12.6085V24.1975H11.7595V22.4532ZM10.9105 22.4532H11.7595V24.1975H10.9105V22.4532ZM10.0615 22.4532H10.9105V24.1975H10.0615V22.4532ZM9.21247 22.4532H10.0615V24.1975H9.21247V22.4532ZM11.7595 24.1975H12.6085V25.9419H11.7595V24.1975ZM10.9105 24.1975H11.7595V25.9419H10.9105V24.1975ZM10.0615 24.1975H10.9105V25.9419H10.0615V24.1975ZM9.21247 24.1975H10.0615V25.9419H9.21247V24.1975ZM11.7595 25.9419H12.6085V27.6862H11.7595V25.9419ZM10.9105 25.9419H11.7595V27.6862H10.9105V25.9419ZM10.0615 25.9419H10.9105V27.6862H10.0615V25.9419ZM9.21247 25.9419H10.0615V27.6862H9.21247V25.9419ZM11.7595 27.6862H12.6085V29.4306H11.7595V27.6862ZM10.9105 27.6862H11.7595V29.4306H10.9105V27.6862ZM10.0615 27.6862H10.9105V29.4306H10.0615V27.6862ZM9.21247 27.6862H10.0615V29.4306H9.21247V27.6862ZM24.4947 64.3178V66.0622H23.6457V64.3178H24.4947ZM10.9105 29.4306H11.7595V31.175H10.9105V29.4306ZM10.0615 29.4306H10.9105V31.175H10.0615V29.4306ZM9.21247 29.4306H10.0615V31.175H9.21247V29.4306ZM23.6457 64.3178V66.0622H22.7967V64.3178H23.6457ZM10.9105 31.175H11.7595V32.9193H10.9105V31.175ZM10.0615 31.175H10.9105V32.9193H10.0615V31.175ZM9.21247 31.175H10.0615V32.9193H9.21247V31.175ZM22.7967 64.3178V66.0622H21.9477V64.3178H22.7967ZM10.9105 32.9193H11.7595V34.6637H10.9105V32.9193ZM10.0615 32.9193H10.9105V34.6637H10.0615V32.9193ZM9.21247 32.9193H10.0615V34.6637H9.21247V32.9193ZM21.9477 64.3178V66.0622H21.0987V64.3178H21.9477ZM10.9105 34.6637H11.7595V36.4081H10.9105V34.6637ZM10.0615 34.6637H10.9105V36.4081H10.0615V34.6637ZM9.21247 34.6637H10.0615V36.4081H9.21247V34.6637ZM21.0987 64.3178V66.0622H20.2497V64.3178H21.0987ZM10.9105 36.4081H11.7595V38.1524H10.9105V36.4081ZM10.0615 36.4081H10.9105V38.1524H10.0615V36.4081ZM9.21247 36.4081H10.0615V38.1524H9.21247V36.4081ZM20.2497 64.3178V66.0622H19.4006V64.3178H20.2497ZM10.9105 38.1524H11.7595V39.8968H10.9105V38.1524ZM10.0615 38.1524H10.9105V39.8968H10.0615V38.1524ZM9.21247 38.1524H10.0615V39.8968H9.21247V38.1524ZM19.4006 64.3178V66.0622H18.5516V64.3178H19.4006ZM10.9105 39.8968H11.7595V41.6411H10.9105V39.8968ZM10.0615 39.8968H10.9105V41.6411H10.0615V39.8968ZM9.21247 39.8968H10.0615V41.6411H9.21247V39.8968ZM18.5516 64.3178V66.0622H17.7026V64.3178H18.5516ZM10.9105 41.6411H11.7595V43.3855H10.9105V41.6411ZM10.0615 41.6411H10.9105V43.3855H10.0615V41.6411ZM9.21247 41.6411H10.0615V43.3855H9.21247V41.6411ZM17.7026 64.3178V66.0622H16.8536V64.3178H17.7026ZM10.9105 43.3855H11.7595V45.1299H10.9105V43.3855ZM10.0615 43.3855H10.9105V45.1299H10.0615V43.3855ZM9.21247 43.3855H10.0615V45.1299H9.21247V43.3855ZM16.8536 64.3178V66.0622H16.0046V64.3178H16.8536ZM10.9105 45.1299H11.7595V46.8742H10.9105V45.1299ZM10.0615 45.1299H10.9105V46.8742H10.0615V45.1299ZM9.21247 45.1299H10.0615V46.8742H9.21247V45.1299ZM16.0046 64.3178V66.0622H15.1556V64.3178H16.0046ZM10.9105 46.8742H11.7595V48.6186H10.9105V46.8742ZM10.0615 46.8742H10.9105V48.6186H10.0615V46.8742ZM9.21247 46.8742H10.0615V48.6186H9.21247V46.8742ZM15.1556 64.3178V66.0622H14.3066V64.3178H15.1556ZM10.9105 48.6186H11.7595V50.363H10.9105V48.6186ZM10.0615 48.6186H10.9105V50.363H10.0615V48.6186ZM9.21247 48.6186H10.0615V50.363H9.21247V48.6186ZM14.3066 64.3178V66.0622H13.4575V64.3178H14.3066ZM10.9105 50.363H11.7595V52.1073H10.9105V50.363ZM10.0615 50.363H10.9105V52.1073H10.0615V50.363ZM9.21247 50.363H10.0615V52.1073H9.21247V50.363ZM13.4575 64.3178V66.0622H12.6085V64.3178H13.4575ZM10.9105 52.1073H11.7595V53.8517H10.9105V52.1073ZM10.0615 52.1073H10.9105V53.8517H10.0615V52.1073ZM9.21247 52.1073H10.0615V53.8517H9.21247V52.1073ZM12.6085 64.3178V66.0622H11.7595V64.3178H12.6085ZM10.9105 53.8517H11.7595V55.596H10.9105V53.8517ZM10.0615 53.8517H10.9105V55.596H10.0615V53.8517ZM9.21247 53.8517H10.0615V55.596H9.21247V53.8517ZM11.7595 64.3178V66.0622H10.9105V64.3178H11.7595ZM10.9105 55.596H11.7595V57.3404H10.9105V55.596ZM10.0615 55.596H10.9105V57.3404H10.0615V55.596ZM9.21247 55.596H10.0615V57.3404H9.21247V55.596ZM10.9105 64.3178V66.0622H10.0615V64.3178H10.9105ZM10.9105 57.3404H11.7595V59.0848H10.9105V57.3404ZM10.0615 57.3404H10.9105V59.0848H10.0615V57.3404ZM9.21247 57.3404H10.0615V59.0848H9.21247V57.3404ZM10.0615 64.3178V66.0622H9.21247V64.3178H10.0615ZM10.9105 59.0848H11.7595V60.8291H10.9105V59.0848ZM10.0615 59.0848H10.9105V60.8291H10.0615V59.0848ZM9.21247 59.0848H10.0615V60.8291H9.21247V59.0848ZM13.4575 62.5735V64.3178H12.6085V62.5735H13.4575ZM10.9105 60.8291H11.7595V62.5735H10.9105V60.8291ZM10.0615 60.8291H10.9105V62.5735H10.0615V60.8291ZM9.21247 60.8291H10.0615V62.5735H9.21247V60.8291ZM11.7595 62.5735H12.6085V64.3178H11.7595V62.5735ZM10.9105 62.5735H11.7595V64.3178H10.9105V62.5735ZM10.0615 62.5735H10.9105V64.3178H10.0615V62.5735ZM9.21247 62.5735H10.0615V64.3178H9.21247V62.5735ZM11.7595 60.8291H12.6085V62.5735H11.7595V60.8291ZM15.1556 62.5735H16.0046V64.3178H15.1556V62.5735ZM14.3066 62.5735H15.1556V64.3178H14.3066V62.5735ZM13.4575 62.5735H14.3066V64.3178H13.4575V62.5735ZM11.7595 66.0622H12.6085V67.8066H11.7595V66.0622ZM10.9105 66.0622H11.7595V67.8066H10.9105V66.0622ZM10.0615 66.0622H10.9105V67.8066H10.0615V66.0622ZM9.21247 66.0622H10.0615V67.8066H9.21247V66.0622ZM8.36345 66.0622H9.21247V67.8066H8.36345V66.0622ZM11.7595 67.8066H12.6085V69.5509H11.7595V67.8066ZM10.9105 67.8066H11.7595V69.5509H10.9105V67.8066ZM10.0615 67.8066H10.9105V69.5509H10.0615V67.8066ZM9.21247 67.8066H10.0615V69.5509H9.21247V67.8066ZM8.36345 67.8066H9.21247V69.5509H8.36345V67.8066ZM7.51444 67.8066H8.36345V69.5509H7.51444V67.8066ZM6.66542 67.8066H7.51444V69.5509H6.66542V67.8066ZM5.81641 67.8066H6.66542V69.5509H5.81641V67.8066ZM17.7026 66.0622H18.5516V67.8066H17.7026V66.0622ZM16.0046 67.8066H16.8536V69.5509H16.0046V67.8066ZM16.8536 67.8066H17.7026V69.5509H16.8536V67.8066ZM16.8536 66.0622H17.7026V67.8066H16.8536V66.0622ZM16.0046 66.0622H16.8536V67.8066H16.0046V66.0622ZM15.1556 67.8066H16.0046V69.5509H15.1556V67.8066ZM14.3066 67.8066H15.1556V69.5509H14.3066V67.8066ZM13.4575 67.8066H14.3066V69.5509H13.4575V67.8066ZM15.1556 66.0622H16.0046V67.8066H15.1556V66.0622ZM44.8711 8.49827H45.7201V10.2426H44.8711V8.49827ZM44.0221 8.49827H44.8711V10.2426H44.0221V8.49827ZM43.1731 8.49827H44.0221V10.2426H43.1731V8.49827ZM42.3241 8.49827H43.1731V10.2426H42.3241V8.49827ZM38.928 8.49827H39.777V10.2426H38.928V8.49827ZM38.079 8.49827H38.928V10.2426H38.079V8.49827ZM37.23 8.49827H38.079V10.2426H37.23V8.49827ZM36.381 8.49827H37.23V10.2426H36.381V8.49827ZM35.5319 8.49827H36.381V10.2426H35.5319V8.49827ZM20.2497 8.49827H21.0987V10.2426H20.2497V8.49827ZM45.7201 8.49827H46.5691V10.2426H45.7201V8.49827ZM41.475 8.49827H42.3241V10.2426H41.475V8.49827ZM40.626 8.49827H41.475V10.2426H40.626V8.49827ZM39.777 8.49827H40.626V10.2426H39.777V8.49827ZM42.3241 10.2426H43.1731V11.987H42.3241V10.2426ZM43.1731 10.2426H44.0221V11.987H43.1731V10.2426ZM41.475 10.2426H42.3241V11.987H41.475V10.2426ZM40.626 10.2426H41.475V11.987H40.626V10.2426ZM39.777 10.2426H40.626V11.987H39.777V10.2426ZM38.928 10.2426H39.777V11.987H38.928V10.2426ZM42.3241 11.987H43.1731V13.7314H42.3241V11.987ZM42.3241 13.7314H43.1731V15.4757H42.3241V13.7314ZM41.475 11.987H42.3241V13.7314H41.475V11.987ZM40.626 11.987H41.475V13.7314H40.626V11.987ZM41.475 13.7314H42.3241V15.4757H41.475V13.7314ZM40.626 13.7314H41.475V15.4757H40.626V13.7314ZM39.777 11.987H40.626V13.7314H39.777V11.987ZM39.777 13.7314H40.626V15.4757H39.777V13.7314ZM42.3241 15.4757H43.1731V17.2201H42.3241V15.4757ZM41.475 15.4757H42.3241V17.2201H41.475V15.4757ZM40.626 15.4757H41.475V17.2201H40.626V15.4757ZM39.777 15.4757H40.626V17.2201H39.777V15.4757ZM42.3241 17.2201H43.1731V18.9644H42.3241V17.2201ZM41.475 17.2201H42.3241V18.9644H41.475V17.2201ZM40.626 17.2201H41.475V18.9644H40.626V17.2201ZM39.777 17.2201H40.626V18.9644H39.777V17.2201ZM42.3241 18.9644H43.1731V20.7088H42.3241V18.9644ZM41.475 18.9644H42.3241V20.7088H41.475V18.9644ZM40.626 18.9644H41.475V20.7088H40.626V18.9644ZM39.777 18.9644H40.626V20.7088H39.777V18.9644ZM42.3241 20.7088H43.1731V22.4532H42.3241V20.7088ZM41.475 20.7088H42.3241V22.4532H41.475V20.7088ZM40.626 20.7088H41.475V22.4532H40.626V20.7088ZM39.777 20.7088H40.626V22.4532H39.777V20.7088ZM42.3241 22.4532H43.1731V24.1975H42.3241V22.4532ZM41.475 22.4532H42.3241V24.1975H41.475V22.4532ZM40.626 22.4532H41.475V24.1975H40.626V22.4532ZM39.777 22.4532H40.626V24.1975H39.777V22.4532ZM42.3241 24.1975H43.1731V25.9419H42.3241V24.1975ZM41.475 24.1975H42.3241V25.9419H41.475V24.1975ZM40.626 24.1975H41.475V25.9419H40.626V24.1975ZM39.777 24.1975H40.626V25.9419H39.777V24.1975ZM42.3241 25.9419H43.1731V27.6862H42.3241V25.9419ZM41.475 25.9419H42.3241V27.6862H41.475V25.9419ZM40.626 25.9419H41.475V27.6862H40.626V25.9419ZM39.777 25.9419H40.626V27.6862H39.777V25.9419ZM42.3241 27.6862H43.1731V29.4306H42.3241V27.6862ZM41.475 27.6862H42.3241V29.4306H41.475V27.6862ZM40.626 27.6862H41.475V29.4306H40.626V27.6862ZM39.777 27.6862H40.626V29.4306H39.777V27.6862ZM42.3241 29.4306H43.1731V31.175H42.3241V29.4306ZM41.475 29.4306H42.3241V31.175H41.475V29.4306ZM40.626 29.4306H41.475V31.175H40.626V29.4306ZM39.777 29.4306H40.626V31.175H39.777V29.4306ZM42.3241 31.175H43.1731V32.9193H42.3241V31.175ZM41.475 31.175H42.3241V32.9193H41.475V31.175ZM40.626 31.175H41.475V32.9193H40.626V31.175ZM39.777 31.175H40.626V32.9193H39.777V31.175ZM42.3241 32.9193H43.1731V34.6637H42.3241V32.9193ZM41.475 32.9193H42.3241V34.6637H41.475V32.9193ZM40.626 32.9193H41.475V34.6637H40.626V32.9193ZM39.777 32.9193H40.626V34.6637H39.777V32.9193ZM42.3241 34.6637H43.1731V36.4081H42.3241V34.6637ZM41.475 34.6637H42.3241V36.4081H41.475V34.6637ZM40.626 34.6637H41.475V36.4081H40.626V34.6637ZM39.777 34.6637H40.626V36.4081H39.777V34.6637ZM42.3241 36.4081H43.1731V38.1524H42.3241V36.4081ZM41.475 36.4081H42.3241V38.1524H41.475V36.4081ZM40.626 36.4081H41.475V38.1524H40.626V36.4081ZM39.777 36.4081H40.626V38.1524H39.777V36.4081ZM42.3241 38.1524H43.1731V39.8968H42.3241V38.1524ZM41.475 38.1524H42.3241V39.8968H41.475V38.1524ZM40.626 38.1524H41.475V39.8968H40.626V38.1524ZM39.777 38.1524H40.626V39.8968H39.777V38.1524ZM42.3241 39.8968H43.1731V41.6411H42.3241V39.8968ZM41.475 39.8968H42.3241V41.6411H41.475V39.8968ZM40.626 39.8968H41.475V41.6411H40.626V39.8968ZM39.777 39.8968H40.626V41.6411H39.777V39.8968ZM42.3241 41.6411H43.1731V43.3855H42.3241V41.6411ZM41.475 41.6411H42.3241V43.3855H41.475V41.6411ZM40.626 41.6411H41.475V43.3855H40.626V41.6411ZM39.777 41.6411H40.626V43.3855H39.777V41.6411ZM42.3241 43.3855H43.1731V45.1299H42.3241V43.3855ZM41.475 43.3855H42.3241V45.1299H41.475V43.3855ZM40.626 43.3855H41.475V45.1299H40.626V43.3855ZM39.777 43.3855H40.626V45.1299H39.777V43.3855ZM42.3241 45.1299H43.1731V46.8742H42.3241V45.1299ZM41.475 45.1299H42.3241V46.8742H41.475V45.1299ZM40.626 45.1299H41.475V46.8742H40.626V45.1299ZM39.777 45.1299H40.626V46.8742H39.777V45.1299ZM42.3241 46.8742H43.1731V48.6186H42.3241V46.8742ZM41.475 46.8742H42.3241V48.6186H41.475V46.8742ZM40.626 46.8742H41.475V48.6186H40.626V46.8742ZM39.777 46.8742H40.626V48.6186H39.777V46.8742ZM42.3241 48.6186H43.1731V50.363H42.3241V48.6186ZM41.475 48.6186H42.3241V50.363H41.475V48.6186ZM40.626 48.6186H41.475V50.363H40.626V48.6186ZM38.928 64.3178V66.0622H38.079V64.3178H38.928ZM42.3241 50.363H43.1731V52.1073H42.3241V50.363ZM41.475 50.363H42.3241V52.1073H41.475V50.363ZM40.626 50.363H41.475V52.1073H40.626V50.363ZM38.079 64.3178V66.0622H37.23V64.3178H38.079ZM42.3241 52.1073H43.1731V53.8517H42.3241V52.1073ZM41.475 52.1073H42.3241V53.8517H41.475V52.1073ZM40.626 52.1073H41.475V53.8517H40.626V52.1073ZM37.23 64.3178V66.0622H36.381V64.3178H37.23ZM42.3241 53.8517H43.1731V55.596H42.3241V53.8517ZM41.475 53.8517H42.3241V55.596H41.475V53.8517ZM40.626 53.8517H41.475V55.596H40.626V53.8517ZM36.381 64.3178V66.0622H35.5319V64.3178H36.381ZM42.3241 55.596H43.1731V57.3404H42.3241V55.596ZM41.475 55.596H42.3241V57.3404H41.475V55.596ZM40.626 55.596H41.475V57.3404H40.626V55.596ZM38.079 62.5735H38.928V64.3178H38.079V62.5735ZM42.3241 57.3404H43.1731V59.0848H42.3241V57.3404ZM41.475 57.3404H42.3241V59.0848H41.475V57.3404ZM40.626 57.3404H41.475V59.0848H40.626V57.3404ZM38.928 62.5735H39.777V64.3178H38.928V62.5735ZM42.3241 59.0848H43.1731V60.8291H42.3241V59.0848ZM41.475 59.0848H42.3241V60.8291H41.475V59.0848ZM40.626 59.0848H41.475V60.8291H40.626V59.0848ZM38.928 64.3178H39.777V66.0622H38.928V64.3178ZM42.3241 60.8291H43.1731V62.5735H42.3241V60.8291ZM41.475 60.8291H42.3241V62.5735H41.475V60.8291ZM40.626 60.8291H41.475V62.5735H40.626V60.8291ZM39.777 60.8291H40.626V62.5735H39.777V60.8291ZM42.3241 62.5735H43.1731V64.3178H42.3241V62.5735ZM41.475 62.5735H42.3241V64.3178H41.475V62.5735ZM40.626 62.5735H41.475V64.3178H40.626V62.5735ZM39.777 62.5735H40.626V64.3178H39.777V62.5735ZM42.3241 64.3178H43.1731V66.0622H42.3241V64.3178ZM41.475 64.3178H42.3241V66.0622H41.475V64.3178ZM40.626 64.3178H41.475V66.0622H40.626V64.3178ZM39.777 64.3178H40.626V66.0622H39.777V64.3178ZM42.3241 66.0622H43.1731V67.8066H42.3241V66.0622ZM41.475 66.0622H42.3241V67.8066H41.475V66.0622ZM40.626 66.0622H41.475V67.8066H40.626V66.0622ZM39.777 66.0622H40.626V67.8066H39.777V66.0622ZM42.3241 67.8066H43.1731V69.5509H42.3241V67.8066ZM43.1731 66.0622H44.0221V67.8066H43.1731V66.0622ZM43.1731 67.8066H44.0221V69.5509H43.1731V67.8066ZM41.475 67.8066H42.3241V69.5509H41.475V67.8066ZM44.8711 67.8066H45.7201V69.5509H44.8711V67.8066ZM45.7201 67.8066H46.5691V69.5509H45.7201V67.8066ZM44.0221 67.8066H44.8711V69.5509H44.0221V67.8066ZM40.626 67.8066H41.475V69.5509H40.626V67.8066ZM39.777 67.8066H40.626V69.5509H39.777V67.8066ZM14.3066 66.0622H15.1556V67.8066H14.3066V66.0622ZM13.4575 66.0622H14.3066V67.8066H13.4575V66.0622ZM12.6085 67.8066H13.4575V69.5509H12.6085V67.8066ZM12.6085 66.0622H13.4575V67.8066H12.6085V66.0622ZM38.928 66.0622H39.777V67.8066H38.928V66.0622ZM38.928 67.8066H39.777V69.5509H38.928V67.8066ZM38.079 67.8066H38.928V69.5509H38.079V67.8066ZM37.23 67.8066H38.079V69.5509H37.23V67.8066ZM36.381 67.8066H37.23V69.5509H36.381V67.8066ZM38.079 66.0622H38.928V67.8066H38.079V66.0622ZM37.23 66.0622H38.079V67.8066H37.23V66.0622ZM36.381 66.0622H37.23V67.8066H36.381V66.0622ZM35.5319 67.8066H36.381V69.5509H35.5319V67.8066ZM35.5319 66.0622H36.381V67.8066H35.5319V66.0622ZM34.6829 67.8066H35.5319V69.5509H34.6829V67.8066ZM34.6829 66.0622H35.5319V67.8066H34.6829V66.0622ZM33.8339 67.8066H34.6829V69.5509H33.8339V67.8066ZM33.8339 66.0622H34.6829V67.8066H33.8339V66.0622ZM32.1359 67.8066H32.9849V69.5509H32.1359V67.8066ZM31.2869 67.8066H32.1359V69.5509H31.2869V67.8066ZM32.1359 66.0622H32.9849V67.8066H32.1359V66.0622ZM32.9849 67.8066H33.8339V69.5509H32.9849V67.8066ZM32.9849 66.0622H33.8339V67.8066H32.9849V66.0622ZM31.2869 66.0622H32.1359V67.8066H31.2869V66.0622ZM30.4378 67.8066H31.2869V69.5509H30.4378V67.8066ZM29.5888 67.8066H30.4378V69.5509H29.5888V67.8066ZM28.7398 67.8066H29.5888V69.5509H28.7398V67.8066ZM30.4378 66.0622H31.2869V67.8066H30.4378V66.0622ZM29.5888 66.0622H30.4378V67.8066H29.5888V66.0622ZM28.7398 66.0622H29.5888V67.8066H28.7398V66.0622ZM27.8908 67.8066H28.7398V69.5509H27.8908V67.8066ZM27.8908 66.0622H28.7398V67.8066H27.8908V66.0622Z" fill="#FF9344"/>
<path d="M46.982 67.8066H47.831V69.5509H46.982V67.8066ZM47.831 67.8066H48.6801V69.5509H47.831V67.8066ZM48.6801 67.8066H49.5291V69.5509H48.6801V67.8066ZM49.5291 67.8066H50.3781V69.5509H49.5291V67.8066ZM50.3781 67.8066H51.2271V69.5509H50.3781V67.8066ZM51.2271 67.8066H52.0761V69.5509H51.2271V67.8066ZM52.0761 67.8066H52.9251V69.5509H52.0761V67.8066ZM52.9251 67.8066H53.7742V69.5509H52.9251V67.8066ZM50.3781 67.8066H49.5291V66.0622H50.3781V67.8066ZM51.2271 67.8066H50.3781V66.0622H51.2271V67.8066ZM52.0761 67.8066H51.2271V66.0622H52.0761V67.8066ZM52.9251 67.8066H52.0761V66.0622H52.9251V67.8066ZM51.2271 66.0622H50.3781V64.3178H51.2271V66.0622ZM52.0761 66.0622H51.2271V64.3178H52.0761V66.0622ZM52.9251 66.0622H52.0761V64.3178H52.9251V66.0622ZM52.0761 64.3178H51.2271V62.5735H52.0761V64.3178ZM52.9251 64.3178H52.0761V62.5735H52.9251V64.3178ZM53.7742 67.8066H52.9251V66.0622H53.7742V67.8066ZM53.7742 66.0622H52.9251V64.3178H53.7742V66.0622ZM53.7742 64.3178H52.9251V62.5735H53.7742V64.3178ZM52.0761 62.5735H51.2271V60.8291H52.0761V62.5735ZM52.9251 62.5735H52.0761V60.8291H52.9251V62.5735ZM53.7742 62.5735H52.9251V60.8291H53.7742V62.5735ZM52.9251 60.8291H52.0761V59.0848H52.9251V60.8291ZM53.7742 60.8291H52.9251V59.0848H53.7742V60.8291ZM52.9251 59.0848H52.0761V57.3404H52.9251V59.0848ZM53.7742 59.0848H52.9251V57.3404H53.7742V59.0848ZM54.6232 67.8066H53.7742V66.0622H54.6232V67.8066ZM54.6232 59.0848H53.7742V57.3404H54.6232V59.0848ZM52.9251 57.3404H52.0761V55.596H52.9251V57.3404ZM53.7742 57.3404H52.9251V55.596H53.7742V57.3404ZM54.6232 57.3404H53.7742V55.596H54.6232V57.3404ZM53.7742 55.596H52.9251V53.8517H53.7742V55.596ZM54.6232 55.596H53.7742V53.8517H54.6232V55.596ZM53.7742 53.8517H52.9251V52.1073H53.7742V53.8517ZM54.6232 53.8517H53.7742V52.1073H54.6232V53.8517ZM55.4722 67.8066H54.6232V66.0622H55.4722V67.8066ZM55.4722 66.0622H54.6232V64.3178H55.4722V66.0622ZM54.6232 52.1073H53.7742V50.363H54.6232V52.1073ZM55.4722 64.3178H54.6232V62.5735H55.4722V64.3178ZM54.6232 50.363H53.7742V48.6186H54.6232V50.363ZM55.4722 62.5735H54.6232V60.8291H55.4722V62.5735ZM54.6232 48.6186H53.7742V46.8742H54.6232V48.6186ZM55.4722 48.6186H54.6232V46.8742H55.4722V48.6186ZM55.4722 67.8066H56.3212V69.5509H55.4722V67.8066ZM56.3212 67.8066H55.4722V66.0622H56.3212V67.8066ZM55.4722 46.8742H54.6232V45.1299H55.4722V46.8742ZM56.3212 66.0622H55.4722V64.3178H56.3212V66.0622ZM56.3212 67.8066H57.1702V69.5509H56.3212V67.8066ZM55.4722 45.1299H54.6232V43.3855H55.4722V45.1299ZM56.3212 45.1299H55.4722V43.3855H56.3212V45.1299ZM55.4722 43.3855H54.6232V41.6411H55.4722V43.3855ZM56.3212 43.3855H55.4722V41.6411H56.3212V43.3855ZM57.1702 45.1299H56.3212V43.3855H57.1702V45.1299ZM57.1702 67.8066H58.0192V69.5509H57.1702V67.8066ZM58.0192 67.8066H58.8682V69.5509H58.0192V67.8066ZM57.1702 43.3855H56.3212V41.6411H57.1702V43.3855ZM58.0192 45.1299H57.1702V43.3855H58.0192V45.1299ZM58.8682 45.1299H58.0192V43.3855H58.8682V45.1299ZM59.7173 46.8742H58.8682V45.1299H59.7173V46.8742ZM60.5663 46.8742H59.7173V45.1299H60.5663V46.8742ZM59.7173 45.1299H58.8682V43.3855H59.7173V45.1299ZM60.5663 45.1299H59.7173V43.3855H60.5663V45.1299ZM61.4153 46.8742H60.5663V45.1299H61.4153V46.8742ZM62.2643 46.8742H61.4153V45.1299H62.2643V46.8742ZM63.1133 46.8742H62.2643V45.1299H63.1133V46.8742ZM61.4153 45.1299H60.5663V43.3855H61.4153V45.1299ZM62.2643 45.1299H61.4153V43.3855H62.2643V45.1299ZM63.1133 45.1299H62.2643V43.3855H63.1133V45.1299ZM63.9623 46.8742H63.1133V45.1299H63.9623V46.8742ZM64.8114 46.8742H63.9623V45.1299H64.8114V46.8742ZM65.6604 45.1299H64.8114V43.3855H65.6604V45.1299ZM63.9623 45.1299H63.1133V43.3855H63.9623V45.1299ZM64.8114 45.1299H63.9623V43.3855H64.8114V45.1299ZM65.6604 43.3855H64.8114V41.6411H65.6604V43.3855ZM66.5094 45.1299H65.6604V43.3855H66.5094V45.1299ZM67.3584 45.1299H66.5094V43.3855H67.3584V45.1299ZM68.2074 45.1299H67.3584V43.3855H68.2074V45.1299ZM69.0564 45.1299H68.2074V43.3855H69.0564V45.1299ZM65.6604 46.8742H64.8114V45.1299H65.6604V46.8742ZM66.5094 46.8742H65.6604V45.1299H66.5094V46.8742ZM67.3584 46.8742H66.5094V45.1299H67.3584V46.8742ZM68.2074 46.8742H67.3584V45.1299H68.2074V46.8742ZM69.0564 46.8742H68.2074V45.1299H69.0564V46.8742ZM66.5094 48.6186H65.6604V46.8742H66.5094V48.6186ZM67.3584 48.6186H66.5094V46.8742H67.3584V48.6186ZM68.2074 48.6186H67.3584V46.8742H68.2074V48.6186ZM69.0564 48.6186H68.2074V46.8742H69.0564V48.6186ZM70.7545 53.8517H69.9054V52.1073H70.7545V53.8517ZM63.1133 67.8066H63.9623V69.5509H63.1133V67.8066ZM68.2074 50.363H67.3584V48.6186H68.2074V50.363ZM69.0564 50.363H68.2074V48.6186H69.0564V50.363ZM69.9054 50.363H69.0564V48.6186H69.9054V50.363ZM65.6604 66.0622H64.8114V64.3178H65.6604V66.0622ZM68.2074 52.1073H67.3584V50.363H68.2074V52.1073ZM69.0564 52.1073H68.2074V50.363H69.0564V52.1073ZM69.9054 52.1073H69.0564V50.363H69.9054V52.1073ZM64.8114 67.8066H63.9623V66.0622H64.8114V67.8066ZM67.3584 66.0622H68.2074V67.8066H67.3584V66.0622ZM67.3584 67.8066H68.2074V69.5509H67.3584V67.8066ZM69.9054 53.8517H69.0564V52.1073H69.9054V53.8517ZM66.5094 66.0622H67.3584V67.8066H66.5094V66.0622ZM66.5094 67.8066H67.3584V69.5509H66.5094V67.8066ZM69.9054 55.596H69.0564V53.8517H69.9054V55.596ZM70.7545 55.596H69.9054V53.8517H70.7545V55.596ZM65.6604 66.0622H66.5094V67.8066H65.6604V66.0622ZM65.6604 67.8066H66.5094V69.5509H65.6604V67.8066ZM69.9054 57.3404H69.0564V55.596H69.9054V57.3404ZM70.7545 57.3404H69.9054V55.596H70.7545V57.3404ZM64.8114 66.0622H65.6604V67.8066H64.8114V66.0622ZM64.8114 67.8066H65.6604V69.5509H64.8114V67.8066ZM69.0564 66.0622H68.2074V64.3178H69.0564V66.0622ZM70.7545 59.0848H69.9054V57.3404H70.7545V59.0848ZM71.6035 59.0848H70.7545V57.3404H71.6035V59.0848ZM63.9623 67.8066H64.8114V69.5509H63.9623V67.8066ZM66.5094 66.0622H65.6604V64.3178H66.5094V66.0622ZM70.7545 60.8291H69.9054V59.0848H70.7545V60.8291ZM71.6035 60.8291H70.7545V59.0848H71.6035V60.8291ZM69.0564 67.8066H68.2074V66.0622H69.0564V67.8066ZM69.9054 62.5735H69.0564V60.8291H69.9054V62.5735ZM70.7545 62.5735H69.9054V60.8291H70.7545V62.5735ZM71.6035 62.5735H70.7545V60.8291H71.6035V62.5735ZM72.4525 62.5735H71.6035V60.8291H72.4525V62.5735ZM69.9054 64.3178H69.0564V62.5735H69.9054V64.3178ZM70.7545 64.3178H69.9054V62.5735H70.7545V64.3178ZM71.6035 64.3178H70.7545V62.5735H71.6035V64.3178ZM72.4525 64.3178H71.6035V62.5735H72.4525V64.3178ZM69.9054 66.0622H69.0564V64.3178H69.9054V66.0622ZM70.7545 66.0622H69.9054V64.3178H70.7545V66.0622ZM71.6035 66.0622H70.7545V64.3178H71.6035V66.0622ZM72.4525 66.0622H71.6035V64.3178H72.4525V66.0622ZM73.3015 66.0622H72.4525V64.3178H73.3015V66.0622ZM69.9054 67.8066H69.0564V66.0622H69.9054V67.8066ZM70.7545 67.8066H69.9054V66.0622H70.7545V67.8066ZM71.6035 67.8066H70.7545V66.0622H71.6035V67.8066ZM72.4525 67.8066H71.6035V66.0622H72.4525V67.8066ZM73.3015 67.8066H72.4525V66.0622H73.3015V67.8066ZM74.1505 67.8066H73.3015V66.0622H74.1505V67.8066ZM69.0564 67.8066H69.9054V69.5509H69.0564V67.8066ZM68.2074 67.8066H69.0564V69.5509H68.2074V67.8066ZM69.9054 67.8066H70.7545V69.5509H69.9054V67.8066ZM70.7545 67.8066H71.6035V69.5509H70.7545V67.8066ZM71.6035 67.8066H72.4525V69.5509H71.6035V67.8066ZM72.4525 67.8066H73.3015V69.5509H72.4525V67.8066ZM73.3015 67.8066H74.1505V69.5509H73.3015V67.8066ZM74.1505 67.8066H74.9995V69.5509H74.1505V67.8066ZM74.9995 67.8066H75.8486V69.5509H74.9995V67.8066ZM75.8486 67.8066H76.6976V69.5509H75.8486V67.8066ZM66.5094 43.3855H65.6604V41.6411H66.5094V43.3855ZM67.3584 43.3855H66.5094V41.6411H67.3584V43.3855ZM68.2074 43.3855H67.3584V41.6411H68.2074V43.3855ZM65.6604 41.6411H64.8114V39.8968H65.6604V41.6411ZM66.5094 41.6411H65.6604V39.8968H66.5094V41.6411ZM67.3584 41.6411H66.5094V39.8968H67.3584V41.6411ZM64.8114 43.3855H63.9623V41.6411H64.8114V43.3855ZM65.6604 39.8968H64.8114V38.1524H65.6604V39.8968ZM66.5094 39.8968H65.6604V38.1524H66.5094V39.8968ZM67.3584 39.8968H66.5094V38.1524H67.3584V39.8968ZM64.8114 41.6411H63.9623V39.8968H64.8114V41.6411ZM65.6604 38.1524H64.8114V36.4081H65.6604V38.1524ZM66.5094 38.1524H65.6604V36.4081H66.5094V38.1524ZM64.8114 39.8968H63.9623V38.1524H64.8114V39.8968ZM65.6604 36.4081H64.8114V34.6637H65.6604V36.4081ZM66.5094 36.4081H65.6604V34.6637H66.5094V36.4081ZM67.3584 38.1524H66.5094V36.4081H67.3584V38.1524ZM68.2074 41.6411H67.3584V39.8968H68.2074V41.6411ZM64.8114 38.1524H63.9623V36.4081H64.8114V38.1524ZM65.6604 34.6637H64.8114V32.9193H65.6604V34.6637ZM66.5094 34.6637H65.6604V32.9193H66.5094V34.6637ZM63.9623 43.3855H63.1133V41.6411H63.9623V43.3855ZM64.8114 32.9193H63.9623V31.175H64.8114V32.9193ZM65.6604 32.9193H64.8114V31.175H65.6604V32.9193ZM66.5094 32.9193H65.6604V31.175H66.5094V32.9193ZM63.9623 41.6411H63.1133V39.8968H63.9623V41.6411ZM63.9623 31.175H63.1133V29.4306H63.9623V31.175ZM64.8114 31.175H63.9623V29.4306H64.8114V31.175ZM65.6604 31.175H64.8114V29.4306H65.6604V31.175ZM66.5094 31.175H65.6604V29.4306H66.5094V31.175ZM67.3584 36.4081H66.5094V34.6637H67.3584V36.4081ZM63.9623 29.4306H63.1133V27.6862H63.9623V29.4306ZM64.8114 29.4306H63.9623V27.6862H64.8114V29.4306ZM65.6604 29.4306H64.8114V27.6862H65.6604V29.4306ZM63.1133 29.4306H62.2643V27.6862H63.1133V29.4306ZM63.1133 27.6862H62.2643V25.9419H63.1133V27.6862ZM63.9623 27.6862H63.1133V25.9419H63.9623V27.6862ZM64.8114 27.6862H63.9623V25.9419H64.8114V27.6862ZM63.1133 25.9419H62.2643V24.1975H63.1133V25.9419ZM64.8114 25.9419H63.9623V24.1975H64.8114V25.9419ZM65.6604 27.6862H64.8114V25.9419H65.6604V27.6862ZM62.2643 24.1975H61.4153V22.4532H62.2643V24.1975ZM63.1133 24.1975H62.2643V22.4532H63.1133V24.1975ZM63.9623 24.1975H63.1133V22.4532H63.9623V24.1975ZM63.9623 25.9419H63.1133V24.1975H63.9623V25.9419ZM64.8114 24.1975H63.9623V22.4532H64.8114V24.1975ZM62.2643 22.4532H61.4153V20.7088H62.2643V22.4532ZM63.1133 22.4532H62.2643V20.7088H63.1133V22.4532ZM61.4153 20.7088H60.5663V18.9644H61.4153V20.7088ZM62.2643 20.7088H61.4153V18.9644H62.2643V20.7088ZM63.1133 20.7088H62.2643V18.9644H63.1133V20.7088ZM63.9623 22.4532H63.1133V20.7088H63.9623V22.4532ZM64.8114 22.4532H63.9623V20.7088H64.8114V22.4532ZM61.4153 18.9644H60.5663V17.2201H61.4153V18.9644ZM62.2643 18.9644H61.4153V17.2201H62.2643V18.9644ZM63.1133 18.9644H62.2643V17.2201H63.1133V18.9644ZM63.9623 20.7088H63.1133V18.9644H63.9623V20.7088ZM61.4153 17.2201H60.5663V15.4757H61.4153V17.2201ZM62.2643 17.2201H61.4153V15.4757H62.2643V17.2201ZM63.1133 17.2201H62.2643V15.4757H63.1133V17.2201ZM63.9623 18.9644H63.1133V17.2201H63.9623V18.9644ZM61.4153 15.4757H60.5663V13.7314H61.4153V15.4757ZM62.2643 15.4757H61.4153V13.7314H62.2643V15.4757ZM63.1133 15.4757H62.2643V13.7314H63.1133V15.4757ZM62.2643 13.7314H61.4153V11.987H62.2643V13.7314ZM63.1133 13.7314H62.2643V11.987H63.1133V13.7314ZM61.4153 13.7314H60.5663V11.987H61.4153V13.7314ZM61.4153 11.987H60.5663V10.2426H61.4153V11.987ZM62.2643 11.987H61.4153V10.2426H62.2643V11.987ZM62.2643 10.2426H61.4153V8.49827H62.2643V10.2426ZM61.4153 6.75391H62.2643V8.49827H61.4153V6.75391ZM60.5663 6.75391H61.4153V8.49827H60.5663V6.75391ZM57.1702 41.6411H56.3212V39.8968H57.1702V41.6411ZM56.3212 41.6411H55.4722V39.8968H56.3212V41.6411ZM57.1702 39.8968H56.3212V38.1524H57.1702V39.8968ZM56.3212 39.8968H55.4722V38.1524H56.3212V39.8968ZM57.1702 38.1524H56.3212V36.4081H57.1702V38.1524ZM58.0192 39.8968H57.1702V38.1524H58.0192V39.8968ZM58.0192 38.1524H57.1702V36.4081H58.0192V38.1524ZM56.3212 38.1524H55.4722V36.4081H56.3212V38.1524ZM58.0192 36.4081H57.1702V34.6637H58.0192V36.4081ZM57.1702 36.4081H56.3212V34.6637H57.1702V36.4081ZM58.0192 34.6637H57.1702V32.9193H58.0192V34.6637ZM57.1702 34.6637H56.3212V32.9193H57.1702V34.6637ZM58.0192 32.9193H57.1702V31.175H58.0192V32.9193ZM58.8682 34.6637H58.0192V32.9193H58.8682V34.6637ZM58.8682 32.9193H58.0192V31.175H58.8682V32.9193ZM58.8682 31.175H58.0192V29.4306H58.8682V31.175ZM58.0192 31.175H57.1702V29.4306H58.0192V31.175ZM58.8682 29.4306H58.0192V27.6862H58.8682V29.4306ZM59.7173 29.4306H58.8682V27.6862H59.7173V29.4306ZM58.0192 29.4306H57.1702V27.6862H58.0192V29.4306ZM58.8682 27.6862H58.0192V25.9419H58.8682V27.6862ZM59.7173 27.6862H58.8682V25.9419H59.7173V27.6862ZM59.7173 25.9419H58.8682V24.1975H59.7173V25.9419ZM58.8682 25.9419H58.0192V24.1975H58.8682V25.9419ZM59.7173 24.1975H58.8682V22.4532H59.7173V24.1975ZM60.5663 24.1975H59.7173V22.4532H60.5663V24.1975ZM58.8682 24.1975H58.0192V22.4532H58.8682V24.1975ZM59.7173 22.4532H58.8682V20.7088H59.7173V22.4532ZM60.5663 22.4532H59.7173V20.7088H60.5663V22.4532ZM60.5663 20.7088H59.7173V18.9644H60.5663V20.7088ZM59.7173 20.7088H58.8682V18.9644H59.7173V20.7088ZM59.7173 18.9644H58.8682V17.2201H59.7173V18.9644ZM60.5663 18.9644H59.7173V17.2201H60.5663V18.9644ZM60.5663 17.2201H59.7173V15.4757H60.5663V17.2201ZM60.5663 15.4757H59.7173V13.7314H60.5663V15.4757ZM61.4153 10.2426H60.5663V8.49827H61.4153V10.2426ZM53.7742 67.8066H54.6232V69.5509H53.7742V67.8066ZM54.6232 67.8066H55.4722V69.5509H54.6232V67.8066Z" fill="#FF9344"/>
<path d="M78.0109 67.8066H78.8599V69.5509H78.0109V67.8066ZM77.1619 67.8066H78.0109V69.5509H77.1619V67.8066ZM78.8599 67.8066H79.7089V69.5509H78.8599V67.8066ZM79.7089 67.8066H80.5579V69.5509H79.7089V67.8066ZM80.5579 67.8066H81.4069V69.5509H80.5579V67.8066ZM81.4069 67.8066H82.256V69.5509H81.4069V67.8066ZM82.256 67.8066H83.105V69.5509H82.256V67.8066ZM83.105 67.8066H83.954V69.5509H83.105V67.8066ZM83.954 67.8066H84.803V69.5509H83.954V67.8066ZM81.4069 67.8066H80.5579V66.0622H81.4069V67.8066ZM80.5579 67.8066H79.7089V66.0622H80.5579V67.8066ZM82.256 67.8066H81.4069V66.0622H82.256V67.8066ZM83.105 67.8066H82.256V66.0622H83.105V67.8066ZM83.954 67.8066H83.105V66.0622H83.954V67.8066ZM81.4069 66.0622H80.5579V64.3178H81.4069V66.0622ZM81.4069 64.3178H80.5579V62.5735H81.4069V64.3178ZM82.256 66.0622H81.4069V64.3178H82.256V66.0622ZM83.105 66.0622H82.256V64.3178H83.105V66.0622ZM82.256 64.3178H81.4069V62.5735H82.256V64.3178ZM83.105 64.3178H82.256V62.5735H83.105V64.3178ZM84.803 67.8066H83.954V66.0622H84.803V67.8066ZM85.652 67.8066H84.803V66.0622H85.652V67.8066ZM84.803 66.0622H83.954V64.3178H84.803V66.0622ZM83.954 66.0622H83.105V64.3178H83.954V66.0622ZM83.954 64.3178H83.105V62.5735H83.954V64.3178ZM81.4069 62.5735H80.5579V60.8291H81.4069V62.5735ZM82.256 62.5735H81.4069V60.8291H82.256V62.5735ZM83.105 62.5735H82.256V60.8291H83.105V62.5735ZM83.954 62.5735H83.105V60.8291H83.954V62.5735ZM81.4069 60.8291H80.5579V59.0848H81.4069V60.8291ZM82.256 60.8291H81.4069V59.0848H82.256V60.8291ZM83.105 60.8291H82.256V59.0848H83.105V60.8291ZM83.954 60.8291H83.105V59.0848H83.954V60.8291ZM81.4069 59.0848H80.5579V57.3404H81.4069V59.0848ZM82.256 59.0848H81.4069V57.3404H82.256V59.0848ZM83.105 59.0848H82.256V57.3404H83.105V59.0848ZM83.954 59.0848H83.105V57.3404H83.954V59.0848ZM81.4069 57.3404H80.5579V55.596H81.4069V57.3404ZM82.256 57.3404H81.4069V55.596H82.256V57.3404ZM83.105 57.3404H82.256V55.596H83.105V57.3404ZM83.954 57.3404H83.105V55.596H83.954V57.3404ZM81.4069 55.596H80.5579V53.8517H81.4069V55.596ZM82.256 55.596H81.4069V53.8517H82.256V55.596ZM83.105 55.596H82.256V53.8517H83.105V55.596ZM83.954 55.596H83.105V53.8517H83.954V55.596ZM81.4069 53.8517H80.5579V52.1073H81.4069V53.8517ZM82.256 53.8517H81.4069V52.1073H82.256V53.8517ZM83.105 53.8517H82.256V52.1073H83.105V53.8517ZM84.803 64.3178H83.954V62.5735H84.803V64.3178ZM81.4069 52.1073H80.5579V50.363H81.4069V52.1073ZM82.256 52.1073H81.4069V50.363H82.256V52.1073ZM83.105 52.1073H82.256V50.363H83.105V52.1073ZM84.803 62.5735H83.954V60.8291H84.803V62.5735ZM81.4069 50.363H80.5579V48.6186H81.4069V50.363ZM82.256 50.363H81.4069V48.6186H82.256V50.363ZM83.105 50.363H82.256V48.6186H83.105V50.363ZM84.803 60.8291H83.954V59.0848H84.803V60.8291ZM81.4069 48.6186H80.5579V46.8742H81.4069V48.6186ZM82.256 48.6186H81.4069V46.8742H82.256V48.6186ZM83.105 48.6186H82.256V46.8742H83.105V48.6186ZM84.803 59.0848H83.954V57.3404H84.803V59.0848ZM81.4069 46.8742H80.5579V45.1299H81.4069V46.8742ZM82.256 46.8742H81.4069V45.1299H82.256V46.8742ZM83.105 46.8742H82.256V45.1299H83.105V46.8742ZM84.803 57.3404H83.954V55.596H84.803V57.3404ZM81.4069 45.1299H80.5579V43.3855H81.4069V45.1299ZM82.256 45.1299H81.4069V43.3855H82.256V45.1299ZM83.105 45.1299H82.256V43.3855H83.105V45.1299ZM84.803 55.596H83.954V53.8517H84.803V55.596ZM81.4069 43.3855H80.5579V41.6411H81.4069V43.3855ZM82.256 43.3855H81.4069V41.6411H82.256V43.3855ZM83.105 43.3855H82.256V41.6411H83.105V43.3855ZM84.803 53.8517H83.954V52.1073H84.803V53.8517ZM81.4069 41.6411H80.5579V39.8968H81.4069V41.6411ZM82.256 41.6411H81.4069V39.8968H82.256V41.6411ZM83.105 41.6411H82.256V39.8968H83.105V41.6411ZM84.803 52.1073H83.954V50.363H84.803V52.1073ZM81.4069 39.8968H80.5579V38.1524H81.4069V39.8968ZM82.256 39.8968H81.4069V38.1524H82.256V39.8968ZM83.105 39.8968H82.256V38.1524H83.105V39.8968ZM84.803 50.363H83.954V48.6186H84.803V50.363ZM81.4069 38.1524H80.5579V36.4081H81.4069V38.1524ZM82.256 38.1524H81.4069V36.4081H82.256V38.1524ZM83.105 38.1524H82.256V36.4081H83.105V38.1524ZM84.803 48.6186H83.954V46.8742H84.803V48.6186ZM81.4069 36.4081H80.5579V34.6637H81.4069V36.4081ZM82.256 36.4081H81.4069V34.6637H82.256V36.4081ZM83.105 36.4081H82.256V34.6637H83.105V36.4081ZM84.803 46.8742H83.954V45.1299H84.803V46.8742ZM81.4069 34.6637H80.5579V32.9193H81.4069V34.6637ZM82.256 34.6637H81.4069V32.9193H82.256V34.6637ZM83.105 34.6637H82.256V32.9193H83.105V34.6637ZM83.954 34.6637H83.105V32.9193H83.954V34.6637ZM81.4069 32.9193H80.5579V31.175H81.4069V32.9193ZM82.256 32.9193H81.4069V31.175H82.256V32.9193ZM83.105 32.9193H82.256V31.175H83.105V32.9193ZM83.954 32.9193H83.105V31.175H83.954V32.9193ZM81.4069 31.175H80.5579V29.4306H81.4069V31.175ZM82.256 31.175H81.4069V29.4306H82.256V31.175ZM83.105 31.175H82.256V29.4306H83.105V31.175ZM83.954 31.175H83.105V29.4306H83.954V31.175ZM81.4069 29.4306H80.5579V27.6862H81.4069V29.4306ZM82.256 29.4306H81.4069V27.6862H82.256V29.4306ZM83.105 29.4306H82.256V27.6862H83.105V29.4306ZM83.954 29.4306H83.105V27.6862H83.954V29.4306ZM81.4069 27.6862H80.5579V25.9419H81.4069V27.6862ZM82.256 27.6862H81.4069V25.9419H82.256V27.6862ZM83.105 27.6862H82.256V25.9419H83.105V27.6862ZM83.954 27.6862H83.105V25.9419H83.954V27.6862ZM81.4069 25.9419H80.5579V24.1975H81.4069V25.9419ZM82.256 25.9419H81.4069V24.1975H82.256V25.9419ZM83.105 25.9419H82.256V24.1975H83.105V25.9419ZM83.954 25.9419H83.105V24.1975H83.954V25.9419ZM81.4069 24.1975H80.5579V22.4532H81.4069V24.1975ZM82.256 24.1975H81.4069V22.4532H82.256V24.1975ZM83.105 24.1975H82.256V22.4532H83.105V24.1975ZM83.954 24.1975H83.105V22.4532H83.954V24.1975ZM81.4069 22.4532H80.5579V20.7088H81.4069V22.4532ZM82.256 22.4532H81.4069V20.7088H82.256V22.4532ZM83.105 22.4532H82.256V20.7088H83.105V22.4532ZM83.954 22.4532H83.105V20.7088H83.954V22.4532ZM81.4069 20.7088H80.5579V18.9644H81.4069V20.7088ZM82.256 20.7088H81.4069V18.9644H82.256V20.7088ZM83.105 20.7088H82.256V18.9644H83.105V20.7088ZM83.954 20.7088H83.105V18.9644H83.954V20.7088ZM81.4069 18.9644H80.5579V17.2201H81.4069V18.9644ZM82.256 18.9644H81.4069V17.2201H82.256V18.9644ZM83.105 18.9644H82.256V17.2201H83.105V18.9644ZM83.954 18.9644H83.105V17.2201H83.954V18.9644ZM81.4069 17.2201H80.5579V15.4757H81.4069V17.2201ZM82.256 17.2201H81.4069V15.4757H82.256V17.2201ZM83.105 17.2201H82.256V15.4757H83.105V17.2201ZM83.954 17.2201H83.105V15.4757H83.954V17.2201ZM81.4069 15.4757H80.5579V13.7314H81.4069V15.4757ZM82.256 15.4757H81.4069V13.7314H82.256V15.4757ZM83.105 15.4757H82.256V13.7314H83.105V15.4757ZM83.954 15.4757H83.105V13.7314H83.954V15.4757ZM81.4069 13.7314H80.5579V11.987H81.4069V13.7314ZM82.256 13.7314H81.4069V11.987H82.256V13.7314ZM83.105 13.7314H82.256V11.987H83.105V13.7314ZM83.954 13.7314H83.105V11.987H83.954V13.7314ZM81.4069 11.987H80.5579V10.2426H81.4069V11.987ZM80.5579 11.987H79.7089V10.2426H80.5579V11.987ZM82.256 11.987H81.4069V10.2426H82.256V11.987ZM83.105 11.987H82.256V10.2426H83.105V11.987ZM83.954 11.987H83.105V10.2426H83.954V11.987ZM85.652 66.0622H84.803V64.3178H85.652V66.0622ZM80.5579 8.49827H81.4069V10.2426H80.5579V8.49827ZM81.4069 8.49827H82.256V10.2426H81.4069V8.49827ZM82.256 8.49827H83.105V10.2426H82.256V8.49827ZM83.105 8.49827H83.954V10.2426H83.105V8.49827ZM83.954 8.49827H84.803V10.2426H83.954V8.49827ZM84.803 8.49827H85.652V10.2426H84.803V8.49827ZM85.652 8.49827H86.501V10.2426H85.652V8.49827ZM86.501 8.49827H87.3501V10.2426H86.501V8.49827ZM86.501 66.0622H85.652V64.3178H86.501V66.0622ZM87.3501 66.0622H86.501V64.3178H87.3501V66.0622ZM87.3501 11.987H86.501V10.2426H87.3501V11.987ZM87.3501 8.49827H88.1991V10.2426H87.3501V8.49827ZM88.1991 8.49827H89.0481V10.2426H88.1991V8.49827ZM89.0481 8.49827H89.8971V10.2426H89.0481V8.49827ZM88.1991 11.987H87.3501V10.2426H88.1991V11.987ZM89.0481 11.987H88.1991V10.2426H89.0481V11.987ZM89.8971 11.987H89.0481V10.2426H89.8971V11.987ZM89.8971 8.49827H90.7461V10.2426H89.8971V8.49827ZM90.7461 11.987H89.8971V10.2426H90.7461V11.987ZM90.7461 13.7314H89.8971V11.987H90.7461V13.7314ZM92.4441 13.7314H91.5951V11.987H92.4441V13.7314ZM92.4441 11.987H91.5951V10.2426H92.4441V11.987ZM93.2932 11.987H92.4441V10.2426H93.2932V11.987ZM92.4441 15.4757H91.5951V13.7314H92.4441V15.4757ZM93.2932 13.7314H92.4441V11.987H93.2932V13.7314ZM93.2932 15.4757H92.4441V13.7314H93.2932V15.4757ZM93.2932 17.2201H92.4441V15.4757H93.2932V17.2201ZM90.7461 8.49827H91.5951V10.2426H90.7461V8.49827ZM91.5951 11.987H90.7461V10.2426H91.5951V11.987ZM91.5951 13.7314H90.7461V11.987H91.5951V13.7314ZM93.2932 18.9644H92.4441V17.2201H93.2932V18.9644ZM94.1422 13.7314H93.2932V11.987H94.1422V13.7314ZM94.1422 15.4757H93.2932V13.7314H94.1422V15.4757ZM94.1422 17.2201H93.2932V15.4757H94.1422V17.2201ZM94.1422 18.9644H93.2932V17.2201H94.1422V18.9644ZM94.9912 15.4757H94.1422V13.7314H94.9912V15.4757ZM94.9912 17.2201H94.1422V15.4757H94.9912V17.2201ZM94.9912 18.9644H94.1422V17.2201H94.9912V18.9644ZM94.9912 20.7088H94.1422V18.9644H94.9912V20.7088ZM95.8402 17.2201H94.9912V15.4757H95.8402V17.2201ZM95.8402 18.9644H94.9912V17.2201H95.8402V18.9644ZM95.8402 20.7088H94.9912V18.9644H95.8402V20.7088ZM95.8402 22.4532H94.9912V20.7088H95.8402V22.4532ZM95.8402 18.9644H96.6892V20.7088H95.8402V18.9644ZM95.8402 20.7088H96.6892V22.4532H95.8402V20.7088ZM95.8402 22.4532H96.6892V24.1975H95.8402V22.4532ZM95.8402 24.1975H96.6892V25.9419H95.8402V24.1975ZM95.8402 25.9419H96.6892V27.6862H95.8402V25.9419ZM95.8402 24.1975H94.9912V22.4532H95.8402V24.1975ZM95.8402 25.9419H94.9912V24.1975H95.8402V25.9419ZM95.8402 27.6862H94.9912V25.9419H95.8402V27.6862ZM95.8402 29.4306H94.9912V27.6862H95.8402V29.4306ZM95.8402 27.6862H96.6892V29.4306H95.8402V27.6862ZM94.9912 22.4532H94.1422V20.7088H94.9912V22.4532ZM94.9912 24.1975H94.1422V22.4532H94.9912V24.1975ZM94.9912 25.9419H94.1422V24.1975H94.9912V25.9419ZM94.1422 20.7088H93.2932V18.9644H94.1422V20.7088ZM94.1422 22.4532H93.2932V20.7088H94.1422V22.4532ZM94.1422 24.1975H93.2932V22.4532H94.1422V24.1975ZM94.1422 25.9419H93.2932V24.1975H94.1422V25.9419ZM94.1422 27.6862H93.2932V25.9419H94.1422V27.6862ZM94.9912 27.6862H94.1422V25.9419H94.9912V27.6862ZM94.9912 29.4306H94.1422V27.6862H94.9912V29.4306ZM94.1422 29.4306H93.2932V27.6862H94.1422V29.4306ZM95.8402 31.175H94.9912V29.4306H95.8402V31.175ZM94.9912 31.175H94.1422V29.4306H94.9912V31.175ZM94.1422 31.175H93.2932V29.4306H94.1422V31.175ZM95.8402 32.9193H94.9912V31.175H95.8402V32.9193ZM94.9912 32.9193H94.1422V31.175H94.9912V32.9193ZM94.1422 32.9193H93.2932V31.175H94.1422V32.9193ZM94.9912 34.6637H94.1422V32.9193H94.9912V34.6637ZM94.1422 34.6637H93.2932V32.9193H94.1422V34.6637ZM94.1422 36.4081H93.2932V34.6637H94.1422V36.4081ZM93.2932 36.4081H92.4441V34.6637H93.2932V36.4081ZM92.4441 38.1524H91.5951V36.4081H92.4441V38.1524ZM93.2932 38.1524H92.4441V36.4081H93.2932V38.1524ZM92.4441 67.8066H93.2932V69.5509H92.4441V67.8066ZM91.5951 67.8066H92.4441V69.5509H91.5951V67.8066ZM90.7461 67.8066H91.5951V69.5509H90.7461V67.8066ZM90.7461 67.8066H89.8971V66.0622H90.7461V67.8066ZM89.8971 67.8066H90.7461V69.5509H89.8971V67.8066ZM89.0481 67.8066H89.8971V69.5509H89.0481V67.8066ZM88.1991 67.8066H89.0481V69.5509H88.1991V67.8066ZM88.1991 67.8066H87.3501V66.0622H88.1991V67.8066ZM87.3501 67.8066H86.501V66.0622H87.3501V67.8066ZM86.501 67.8066H85.652V66.0622H86.501V67.8066ZM77.1619 8.49827H78.0109V10.2426H77.1619V8.49827ZM78.0109 8.49827H78.8599V10.2426H78.0109V8.49827ZM78.8599 8.49827H79.7089V10.2426H78.8599V8.49827ZM79.7089 8.49827H80.5579V10.2426H79.7089V8.49827ZM84.803 67.8066H85.652V69.5509H84.803V67.8066ZM85.652 67.8066H86.501V69.5509H85.652V67.8066ZM86.501 67.8066H87.3501V69.5509H86.501V67.8066ZM87.3501 67.8066H88.1991V69.5509H87.3501V67.8066Z" fill="#FF9344"/>
<path d="M101.347 69.5509H100.498V67.8066H101.347V69.5509ZM103.045 67.8066H102.196V66.0622H103.045V67.8066ZM104.743 67.8066H105.592V69.5509H104.743V67.8066ZM103.045 66.0622H103.894V67.8066H103.045V66.0622ZM100.498 69.5509H101.347V71.2953H100.498V69.5509ZM105.592 60.8291H104.743V59.0848H105.592V60.8291ZM104.743 60.8291H103.894V59.0848H104.743V60.8291ZM101.347 67.8066H100.498V66.0622H101.347V67.8066ZM102.196 67.8066H101.347V66.0622H102.196V67.8066ZM105.592 57.3404H104.743V55.596H105.592V57.3404ZM103.045 67.8066H103.894V69.5509H103.045V67.8066ZM101.347 66.0622H100.498V64.3178H101.347V66.0622ZM101.347 64.3178H100.498V62.5735H101.347V64.3178ZM102.196 66.0622H101.347V64.3178H102.196V66.0622ZM103.045 66.0622H102.196V64.3178H103.045V66.0622ZM102.196 64.3178H101.347V62.5735H102.196V64.3178ZM103.045 64.3178H102.196V62.5735H103.045V64.3178ZM105.592 59.0848H104.743V57.3404H105.592V59.0848ZM106.441 59.0848H105.592V57.3404H106.441V59.0848ZM106.441 55.596H105.592V53.8517H106.441V55.596ZM106.441 57.3404H105.592V55.596H106.441V57.3404ZM106.441 69.5509H105.592V67.8066H106.441V69.5509ZM107.29 53.8517H106.441V52.1073H107.29V53.8517ZM107.29 55.596H106.441V53.8517H107.29V55.596ZM103.894 62.5735H103.045V60.8291H103.894V62.5735ZM108.139 52.1073H107.29V50.363H108.139V52.1073ZM108.139 53.8517H107.29V52.1073H108.139V53.8517ZM108.988 53.8517H108.139V52.1073H108.988V53.8517ZM108.988 50.363H108.139V48.6186H108.988V50.363ZM108.988 52.1073H108.139V50.363H108.988V52.1073ZM109.837 52.1073H108.988V50.363H109.837V52.1073ZM109.837 48.6186H108.988V46.8742H109.837V48.6186ZM109.837 46.8742H108.988V45.1299H109.837V46.8742ZM109.837 50.363H108.988V48.6186H109.837V50.363ZM110.686 46.8742H109.837V45.1299H110.686V46.8742ZM110.686 45.1299H109.837V43.3855H110.686V45.1299ZM110.686 48.6186H109.837V46.8742H110.686V48.6186ZM111.535 45.1299H110.686V43.3855H111.535V45.1299ZM111.535 43.3855H110.686V41.6411H111.535V43.3855ZM111.535 46.8742H110.686V45.1299H111.535V46.8742ZM112.384 43.3855H111.535V41.6411H112.384V43.3855ZM112.384 41.6411H111.535V39.8968H112.384V41.6411ZM112.384 45.1299H111.535V43.3855H112.384V45.1299ZM113.233 41.6411H112.384V39.8968H113.233V41.6411ZM113.233 39.8968H112.384V38.1524H113.233V39.8968ZM113.233 43.3855H112.384V41.6411H113.233V43.3855ZM114.082 39.8968H113.233V38.1524H114.082V39.8968ZM114.082 38.1524H113.233V36.4081H114.082V38.1524ZM113.233 38.1524H112.384V36.4081H113.233V38.1524ZM114.931 38.1524H114.082V36.4081H114.931V38.1524ZM114.931 36.4081H114.082V34.6637H114.931V36.4081ZM114.082 36.4081H113.233V34.6637H114.082V36.4081ZM114.931 34.6637H114.082V32.9193H114.931V34.6637ZM115.78 32.9193H114.931V31.175H115.78V32.9193ZM116.629 31.175H115.78V29.4306H116.629V31.175ZM117.478 29.4306H116.629V27.6862H117.478V29.4306ZM117.478 27.6862H116.629V25.9419H117.478V27.6862ZM118.327 25.9419H117.478V24.1975H118.327V25.9419ZM119.177 24.1975H118.327V22.4532H119.177V24.1975ZM120.026 22.4532H119.177V20.7088H120.026V22.4532ZM120.875 20.7088H120.026V18.9644H120.875V20.7088ZM120.875 18.9644H120.026V17.2201H120.875V18.9644ZM121.724 17.2201H120.875V15.4757H121.724V17.2201ZM122.573 15.4757H121.724V13.7314H122.573V15.4757ZM123.422 13.7314H122.573V11.987H123.422V13.7314ZM124.271 11.987H123.422V10.2426H124.271V11.987ZM125.12 10.2426H124.271V8.49827H125.12V10.2426ZM125.12 6.75391H125.969V8.49827H125.12V6.75391ZM121.724 18.9644H120.875V17.2201H121.724V18.9644ZM122.573 59.0848H121.724V57.3404H122.573V59.0848ZM123.422 15.4757H122.573V13.7314H123.422V15.4757ZM124.271 13.7314H123.422V11.987H124.271V13.7314ZM125.12 11.987H124.271V10.2426H125.12V11.987ZM118.327 27.6862H117.478V25.9419H118.327V27.6862ZM119.177 25.9419H118.327V24.1975H119.177V25.9419ZM120.026 24.1975H119.177V22.4532H120.026V24.1975ZM120.875 22.4532H120.026V20.7088H120.875V22.4532ZM121.724 20.7088H120.875V18.9644H121.724V20.7088ZM122.573 17.2201H121.724V15.4757H122.573V17.2201ZM123.422 50.363H122.573V48.6186H123.422V50.363ZM124.271 15.4757H123.422V13.7314H124.271V15.4757ZM125.12 13.7314H124.271V11.987H125.12V13.7314ZM115.78 36.4081H114.931V34.6637H115.78V36.4081ZM115.78 34.6637H114.931V32.9193H115.78V34.6637ZM116.629 34.6637H115.78V32.9193H116.629V34.6637ZM116.629 32.9193H115.78V31.175H116.629V32.9193ZM117.478 32.9193H116.629V31.175H117.478V32.9193ZM117.478 31.175H116.629V29.4306H117.478V31.175ZM118.327 29.4306H117.478V27.6862H118.327V29.4306ZM119.177 27.6862H118.327V25.9419H119.177V27.6862ZM120.026 25.9419H119.177V24.1975H120.026V25.9419ZM120.875 24.1975H120.026V22.4532H120.875V24.1975ZM123.422 53.8517H122.573V52.1073H123.422V53.8517ZM123.422 52.1073H122.573V50.363H123.422V52.1073ZM123.422 22.4532H122.573V20.7088H123.422V22.4532ZM124.271 22.4532H123.422V20.7088H124.271V22.4532ZM123.422 57.3404H122.573V55.596H123.422V57.3404ZM123.422 55.596H122.573V53.8517H123.422V55.596ZM123.422 59.0848H122.573V57.3404H123.422V59.0848ZM103.894 66.0622H104.743V67.8066H103.894V66.0622ZM101.347 62.5735H100.498V60.8291H101.347V62.5735ZM102.196 62.5735H101.347V60.8291H102.196V62.5735ZM103.045 62.5735H102.196V60.8291H103.045V62.5735ZM103.894 67.8066H104.743V69.5509H103.894V67.8066ZM101.347 60.8291H100.498V59.0848H101.347V60.8291ZM102.196 60.8291H101.347V59.0848H102.196V60.8291ZM103.045 60.8291H102.196V59.0848H103.045V60.8291ZM103.894 60.8291H103.045V59.0848H103.894V60.8291ZM101.347 59.0848H100.498V57.3404H101.347V59.0848ZM102.196 59.0848H101.347V57.3404H102.196V59.0848ZM103.045 59.0848H102.196V57.3404H103.045V59.0848ZM103.894 59.0848H103.045V57.3404H103.894V59.0848ZM101.347 57.3404H100.498V55.596H101.347V57.3404ZM102.196 57.3404H101.347V55.596H102.196V57.3404ZM103.045 57.3404H102.196V55.596H103.045V57.3404ZM103.894 57.3404H103.045V55.596H103.894V57.3404ZM101.347 55.596H100.498V53.8517H101.347V55.596ZM102.196 55.596H101.347V53.8517H102.196V55.596ZM103.045 55.596H102.196V53.8517H103.045V55.596ZM103.894 55.596H103.045V53.8517H103.894V55.596ZM101.347 53.8517H100.498V52.1073H101.347V53.8517ZM102.196 53.8517H101.347V52.1073H102.196V53.8517ZM103.045 53.8517H102.196V52.1073H103.045V53.8517ZM103.894 53.8517H103.045V52.1073H103.894V53.8517ZM101.347 52.1073H100.498V50.363H101.347V52.1073ZM102.196 52.1073H101.347V50.363H102.196V52.1073ZM103.045 52.1073H102.196V50.363H103.045V52.1073ZM103.894 52.1073H103.045V50.363H103.894V52.1073ZM101.347 50.363H100.498V48.6186H101.347V50.363ZM102.196 50.363H101.347V48.6186H102.196V50.363ZM103.045 50.363H102.196V48.6186H103.045V50.363ZM103.894 50.363H103.045V48.6186H103.894V50.363ZM101.347 48.6186H100.498V46.8742H101.347V48.6186ZM102.196 48.6186H101.347V46.8742H102.196V48.6186ZM103.045 48.6186H102.196V46.8742H103.045V48.6186ZM103.894 48.6186H103.045V46.8742H103.894V48.6186ZM101.347 46.8742H100.498V45.1299H101.347V46.8742ZM102.196 46.8742H101.347V45.1299H102.196V46.8742ZM103.045 46.8742H102.196V45.1299H103.045V46.8742ZM103.894 46.8742H103.045V45.1299H103.894V46.8742ZM101.347 45.1299H100.498V43.3855H101.347V45.1299ZM102.196 45.1299H101.347V43.3855H102.196V45.1299ZM103.045 45.1299H102.196V43.3855H103.045V45.1299ZM103.894 45.1299H103.045V43.3855H103.894V45.1299ZM101.347 43.3855H100.498V41.6411H101.347V43.3855ZM102.196 43.3855H101.347V41.6411H102.196V43.3855ZM103.045 43.3855H102.196V41.6411H103.045V43.3855ZM103.894 43.3855H103.045V41.6411H103.894V43.3855ZM101.347 41.6411H100.498V39.8968H101.347V41.6411ZM102.196 41.6411H101.347V39.8968H102.196V41.6411ZM103.045 41.6411H102.196V39.8968H103.045V41.6411ZM103.894 41.6411H103.045V39.8968H103.894V41.6411ZM101.347 39.8968H100.498V38.1524H101.347V39.8968ZM102.196 39.8968H101.347V38.1524H102.196V39.8968ZM103.045 39.8968H102.196V38.1524H103.045V39.8968ZM103.894 39.8968H103.045V38.1524H103.894V39.8968ZM101.347 38.1524H100.498V36.4081H101.347V38.1524ZM102.196 38.1524H101.347V36.4081H102.196V38.1524ZM103.045 38.1524H102.196V36.4081H103.045V38.1524ZM103.894 38.1524H103.045V36.4081H103.894V38.1524ZM101.347 36.4081H100.498V34.6637H101.347V36.4081ZM102.196 36.4081H101.347V34.6637H102.196V36.4081ZM103.045 36.4081H102.196V34.6637H103.045V36.4081ZM103.894 36.4081H103.045V34.6637H103.894V36.4081ZM101.347 34.6637H100.498V32.9193H101.347V34.6637ZM102.196 34.6637H101.347V32.9193H102.196V34.6637ZM103.045 34.6637H102.196V32.9193H103.045V34.6637ZM103.894 34.6637H103.045V32.9193H103.894V34.6637ZM101.347 32.9193H100.498V31.175H101.347V32.9193ZM102.196 32.9193H101.347V31.175H102.196V32.9193ZM103.045 32.9193H102.196V31.175H103.045V32.9193ZM104.743 59.0848H103.894V57.3404H104.743V59.0848ZM101.347 31.175H100.498V29.4306H101.347V31.175ZM102.196 31.175H101.347V29.4306H102.196V31.175ZM103.045 31.175H102.196V29.4306H103.045V31.175ZM104.743 57.3404H103.894V55.596H104.743V57.3404ZM101.347 29.4306H100.498V27.6862H101.347V29.4306ZM102.196 29.4306H101.347V27.6862H102.196V29.4306ZM103.045 29.4306H102.196V27.6862H103.045V29.4306ZM104.743 55.596H103.894V53.8517H104.743V55.596ZM101.347 27.6862H100.498V25.9419H101.347V27.6862ZM102.196 27.6862H101.347V25.9419H102.196V27.6862ZM103.045 27.6862H102.196V25.9419H103.045V27.6862ZM104.743 53.8517H103.894V52.1073H104.743V53.8517ZM101.347 25.9419H100.498V24.1975H101.347V25.9419ZM102.196 25.9419H101.347V24.1975H102.196V25.9419ZM103.045 25.9419H102.196V24.1975H103.045V25.9419ZM104.743 52.1073H103.894V50.363H104.743V52.1073ZM101.347 24.1975H100.498V22.4532H101.347V24.1975ZM102.196 24.1975H101.347V22.4532H102.196V24.1975ZM103.045 24.1975H102.196V22.4532H103.045V24.1975ZM104.743 50.363H103.894V48.6186H104.743V50.363ZM101.347 22.4532H100.498V20.7088H101.347V22.4532ZM102.196 22.4532H101.347V20.7088H102.196V22.4532ZM103.045 22.4532H102.196V20.7088H103.045V22.4532ZM104.743 48.6186H103.894V46.8742H104.743V48.6186ZM101.347 20.7088H100.498V18.9644H101.347V20.7088ZM102.196 20.7088H101.347V18.9644H102.196V20.7088ZM103.045 20.7088H102.196V18.9644H103.045V20.7088ZM104.743 46.8742H103.894V45.1299H104.743V46.8742ZM101.347 18.9644H100.498V17.2201H101.347V18.9644ZM102.196 18.9644H101.347V17.2201H102.196V18.9644ZM103.045 18.9644H102.196V17.2201H103.045V18.9644ZM104.743 45.1299H103.894V43.3855H104.743V45.1299ZM101.347 17.2201H100.498V15.4757H101.347V17.2201ZM102.196 17.2201H101.347V15.4757H102.196V17.2201ZM103.045 17.2201H102.196V15.4757H103.045V17.2201ZM104.743 43.3855H103.894V41.6411H104.743V43.3855ZM101.347 15.4757H100.498V13.7314H101.347V15.4757ZM102.196 15.4757H101.347V13.7314H102.196V15.4757ZM103.045 15.4757H102.196V13.7314H103.045V15.4757ZM104.743 41.6411H103.894V39.8968H104.743V41.6411ZM101.347 13.7314H100.498V11.987H101.347V13.7314ZM100.498 13.7314H99.6492V11.987H100.498V13.7314ZM102.196 13.7314H101.347V11.987H102.196V13.7314ZM103.045 13.7314H102.196V11.987H103.045V13.7314ZM104.743 39.8968H103.894V38.1524H104.743V39.8968ZM101.347 11.987H100.498V10.2426H101.347V11.987ZM100.498 11.987H99.6492V10.2426H100.498V11.987ZM102.196 11.987H101.347V10.2426H102.196V11.987ZM103.045 11.987H102.196V10.2426H103.045V11.987ZM103.894 11.987H103.045V10.2426H103.894V11.987ZM104.743 11.987H103.894V10.2426H104.743V11.987ZM101.347 10.2426H100.498V8.49827H101.347V10.2426ZM102.196 10.2426H101.347V8.49827H102.196V10.2426ZM103.045 10.2426H102.196V8.49827H103.045V10.2426ZM103.894 10.2426H103.045V8.49827H103.894V10.2426ZM104.743 10.2426H103.894V8.49827H104.743V10.2426ZM105.592 55.596H104.743V53.8517H105.592V55.596ZM106.441 53.8517H105.592V52.1073H106.441V53.8517ZM107.29 52.1073H106.441V50.363H107.29V52.1073ZM108.139 50.363H107.29V48.6186H108.139V50.363ZM99.6492 10.2426H98.8002V8.49827H99.6492V10.2426ZM98.8002 10.2426H97.9511V8.49827H98.8002V10.2426ZM97.1021 8.49827H97.9511V10.2426H97.1021V8.49827ZM100.498 10.2426H99.6492V8.49827H100.498V10.2426ZM120.875 69.5509H120.026V67.8066H120.875V69.5509ZM121.724 69.5509H120.875V67.8066H121.724V69.5509ZM119.177 69.5509H118.327V67.8066H119.177V69.5509ZM120.026 69.5509H119.177V67.8066H120.026V69.5509ZM122.573 69.5509H121.724V67.8066H122.573V69.5509ZM123.422 69.5509H122.573V67.8066H123.422V69.5509ZM126.818 69.5509H125.969V67.8066H126.818V69.5509ZM127.667 69.5509H126.818V67.8066H127.667V69.5509ZM128.516 69.5509H127.667V67.8066H128.516V69.5509ZM128.516 67.8066H129.365V69.5509H128.516V67.8066ZM124.271 69.5509H123.422V67.8066H124.271V69.5509ZM125.12 69.5509H124.271V67.8066H125.12V69.5509ZM125.969 69.5509H125.12V67.8066H125.969V69.5509ZM123.422 67.8066H122.573V66.0622H123.422V67.8066ZM122.573 67.8066H121.724V66.0622H122.573V67.8066ZM124.271 67.8066H123.422V66.0622H124.271V67.8066ZM125.12 67.8066H124.271V66.0622H125.12V67.8066ZM125.969 67.8066H125.12V66.0622H125.969V67.8066ZM126.818 67.8066H125.969V66.0622H126.818V67.8066ZM123.422 66.0622H122.573V64.3178H123.422V66.0622ZM120.026 67.8066H119.177V66.0622H120.026V67.8066ZM124.271 66.0622H123.422V64.3178H124.271V66.0622ZM125.12 66.0622H124.271V64.3178H125.12V66.0622ZM124.271 64.3178H123.422V62.5735H124.271V64.3178ZM125.12 64.3178H124.271V62.5735H125.12V64.3178ZM125.969 66.0622H125.12V64.3178H125.969V66.0622ZM125.969 64.3178H125.12V62.5735H125.969V64.3178ZM120.875 67.8066H120.026V66.0622H120.875V67.8066ZM124.271 62.5735H123.422V60.8291H124.271V62.5735ZM125.12 62.5735H124.271V60.8291H125.12V62.5735ZM125.969 62.5735H125.12V60.8291H125.969V62.5735ZM118.327 69.5509H117.478V67.8066H118.327V69.5509ZM124.271 60.8291H123.422V59.0848H124.271V60.8291ZM125.12 60.8291H124.271V59.0848H125.12V60.8291ZM125.969 60.8291H125.12V59.0848H125.969V60.8291ZM121.724 67.8066H120.875V66.0622H121.724V67.8066ZM124.271 59.0848H123.422V57.3404H124.271V59.0848ZM125.12 59.0848H124.271V57.3404H125.12V59.0848ZM125.969 59.0848H125.12V57.3404H125.969V59.0848ZM121.724 66.0622H120.875V64.3178H121.724V66.0622ZM124.271 57.3404H123.422V55.596H124.271V57.3404ZM125.12 57.3404H124.271V55.596H125.12V57.3404ZM125.969 57.3404H125.12V55.596H125.969V57.3404ZM121.724 64.3178H120.875V62.5735H121.724V64.3178ZM124.271 55.596H123.422V53.8517H124.271V55.596ZM125.12 55.596H124.271V53.8517H125.12V55.596ZM125.969 55.596H125.12V53.8517H125.969V55.596ZM122.573 66.0622H121.724V64.3178H122.573V66.0622ZM124.271 53.8517H123.422V52.1073H124.271V53.8517ZM125.12 53.8517H124.271V52.1073H125.12V53.8517ZM125.969 53.8517H125.12V52.1073H125.969V53.8517ZM122.573 64.3178H121.724V62.5735H122.573V64.3178ZM124.271 52.1073H123.422V50.363H124.271V52.1073ZM125.12 52.1073H124.271V50.363H125.12V52.1073ZM125.969 52.1073H125.12V50.363H125.969V52.1073ZM122.573 62.5735H121.724V60.8291H122.573V62.5735ZM124.271 50.363H123.422V48.6186H124.271V50.363ZM125.12 50.363H124.271V48.6186H125.12V50.363ZM125.969 50.363H125.12V48.6186H125.969V50.363ZM122.573 60.8291H121.724V59.0848H122.573V60.8291ZM124.271 48.6186H123.422V46.8742H124.271V48.6186ZM125.12 48.6186H124.271V46.8742H125.12V48.6186ZM125.969 48.6186H125.12V46.8742H125.969V48.6186ZM123.422 64.3178H122.573V62.5735H123.422V64.3178ZM124.271 46.8742H123.422V45.1299H124.271V46.8742ZM125.12 46.8742H124.271V45.1299H125.12V46.8742ZM126.818 66.0622H125.969V64.3178H126.818V66.0622ZM123.422 62.5735H122.573V60.8291H123.422V62.5735ZM124.271 45.1299H123.422V43.3855H124.271V45.1299ZM125.12 45.1299H124.271V43.3855H125.12V45.1299ZM126.818 64.3178H125.969V62.5735H126.818V64.3178ZM123.422 60.8291H122.573V59.0848H123.422V60.8291ZM124.271 43.3855H123.422V41.6411H124.271V43.3855ZM125.12 43.3855H124.271V41.6411H125.12V43.3855ZM126.818 62.5735H125.969V60.8291H126.818V62.5735ZM117.478 69.5509H116.629V67.8066H117.478V69.5509ZM124.271 41.6411H123.422V39.8968H124.271V41.6411ZM125.12 41.6411H124.271V39.8968H125.12V41.6411ZM126.818 60.8291H125.969V59.0848H126.818V60.8291ZM123.422 39.8968H122.573V38.1524H123.422V39.8968ZM124.271 39.8968H123.422V38.1524H124.271V39.8968ZM125.12 39.8968H124.271V38.1524H125.12V39.8968ZM126.818 59.0848H125.969V57.3404H126.818V59.0848ZM123.422 38.1524H122.573V36.4081H123.422V38.1524ZM124.271 38.1524H123.422V36.4081H124.271V38.1524ZM125.12 38.1524H124.271V36.4081H125.12V38.1524ZM126.818 57.3404H125.969V55.596H126.818V57.3404ZM123.422 36.4081H122.573V34.6637H123.422V36.4081ZM124.271 36.4081H123.422V34.6637H124.271V36.4081ZM125.12 36.4081H124.271V34.6637H125.12V36.4081ZM127.667 67.8066H126.818V66.0622H127.667V67.8066ZM123.422 34.6637H122.573V32.9193H123.422V34.6637ZM124.271 34.6637H123.422V32.9193H124.271V34.6637ZM125.12 34.6637H124.271V32.9193H125.12V34.6637ZM125.969 34.6637H125.12V32.9193H125.969V34.6637ZM123.422 32.9193H122.573V31.175H123.422V32.9193ZM124.271 32.9193H123.422V31.175H124.271V32.9193ZM125.12 32.9193H124.271V31.175H125.12V32.9193ZM125.969 32.9193H125.12V31.175H125.969V32.9193ZM123.422 31.175H122.573V29.4306H123.422V31.175ZM124.271 31.175H123.422V29.4306H124.271V31.175ZM125.12 31.175H124.271V29.4306H125.12V31.175ZM125.969 31.175H125.12V29.4306H125.969V31.175ZM123.422 29.4306H122.573V27.6862H123.422V29.4306ZM124.271 29.4306H123.422V27.6862H124.271V29.4306ZM125.12 29.4306H124.271V27.6862H125.12V29.4306ZM125.969 29.4306H125.12V27.6862H125.969V29.4306ZM123.422 27.6862H122.573V25.9419H123.422V27.6862ZM124.271 27.6862H123.422V25.9419H124.271V27.6862ZM125.12 27.6862H124.271V25.9419H125.12V27.6862ZM125.969 27.6862H125.12V25.9419H125.969V27.6862ZM123.422 25.9419H122.573V24.1975H123.422V25.9419ZM124.271 25.9419H123.422V24.1975H124.271V25.9419ZM125.12 25.9419H124.271V24.1975H125.12V25.9419ZM125.969 25.9419H125.12V24.1975H125.969V25.9419ZM123.422 24.1975H122.573V22.4532H123.422V24.1975ZM124.271 24.1975H123.422V22.4532H124.271V24.1975ZM125.12 24.1975H124.271V22.4532H125.12V24.1975ZM125.969 24.1975H125.12V22.4532H125.969V24.1975ZM125.969 22.4532H125.12V20.7088H125.969V22.4532ZM125.969 20.7088H125.12V18.9644H125.969V20.7088ZM125.969 18.9644H125.12V17.2201H125.969V18.9644ZM125.969 17.2201H125.12V15.4757H125.969V17.2201ZM125.969 15.4757H125.12V13.7314H125.969V15.4757ZM125.969 13.7314H125.12V11.987H125.969V13.7314ZM125.969 11.987H125.12V10.2426H125.969V11.987ZM125.969 10.2426H125.12V8.49827H125.969V10.2426ZM125.12 22.4532H124.271V20.7088H125.12V22.4532ZM125.12 20.7088H124.271V18.9644H125.12V20.7088ZM125.12 18.9644H124.271V17.2201H125.12V18.9644ZM125.12 17.2201H124.271V15.4757H125.12V17.2201ZM125.12 15.4757H124.271V13.7314H125.12V15.4757Z" fill="#FF9344"/>
<path d="M151.078 67.8066H150.229V66.0622H151.078V67.8066ZM134.097 67.8066H134.946V69.5509H134.097V67.8066ZM133.248 67.8066H134.097V69.5509H133.248V67.8066ZM134.946 67.8066H135.795V69.5509H134.946V67.8066ZM135.795 67.8066H136.644V69.5509H135.795V67.8066ZM136.644 67.8066H137.493V69.5509H136.644V67.8066ZM137.493 67.8066H138.342V69.5509H137.493V67.8066ZM138.342 67.8066H139.191V69.5509H138.342V67.8066ZM139.191 67.8066H140.04V69.5509H139.191V67.8066ZM140.04 67.8066H140.889V69.5509H140.04V67.8066ZM137.493 67.8066H136.644V66.0622H137.493V67.8066ZM136.644 67.8066H135.795V66.0622H136.644V67.8066ZM138.342 67.8066H137.493V66.0622H138.342V67.8066ZM139.191 67.8066H138.342V66.0622H139.191V67.8066ZM140.04 67.8066H139.191V66.0622H140.04V67.8066ZM137.493 66.0622H136.644V64.3178H137.493V66.0622ZM137.493 64.3178H136.644V62.5735H137.493V64.3178ZM138.342 66.0622H137.493V64.3178H138.342V66.0622ZM139.191 66.0622H138.342V64.3178H139.191V66.0622ZM138.342 64.3178H137.493V62.5735H138.342V64.3178ZM139.191 64.3178H138.342V62.5735H139.191V64.3178ZM140.889 67.8066H140.04V66.0622H140.889V67.8066ZM140.04 66.0622H139.191V64.3178H140.04V66.0622ZM140.04 64.3178H139.191V62.5735H140.04V64.3178ZM131.55 67.8066H132.399V69.5509H131.55V67.8066ZM138.342 62.5735H137.493V60.8291H138.342V62.5735ZM139.191 62.5735H138.342V60.8291H139.191V62.5735ZM140.04 62.5735H139.191V60.8291H140.04V62.5735ZM130.701 67.8066H131.55V69.5509H130.701V67.8066ZM138.342 60.8291H137.493V59.0848H138.342V60.8291ZM139.191 60.8291H138.342V59.0848H139.191V60.8291ZM140.04 60.8291H139.191V59.0848H140.04V60.8291ZM129.852 67.8066H130.701V69.5509H129.852V67.8066ZM138.342 59.0848H137.493V57.3404H138.342V59.0848ZM139.191 59.0848H138.342V57.3404H139.191V59.0848ZM140.04 59.0848H139.191V57.3404H140.04V59.0848ZM136.644 66.0622H135.795V64.3178H136.644V66.0622ZM138.342 57.3404H137.493V55.596H138.342V57.3404ZM139.191 57.3404H138.342V55.596H139.191V57.3404ZM140.04 57.3404H139.191V55.596H140.04V57.3404ZM132.399 67.8066H133.248V69.5509H132.399V67.8066ZM138.342 55.596H137.493V53.8517H138.342V55.596ZM139.191 55.596H138.342V53.8517H139.191V55.596ZM140.04 55.596H139.191V53.8517H140.04V55.596ZM132.399 67.8066V66.0622H133.248V67.8066H132.399ZM138.342 53.8517H137.493V52.1073H138.342V53.8517ZM139.191 53.8517H138.342V52.1073H139.191V53.8517ZM140.04 53.8517H139.191V52.1073H140.04V53.8517ZM133.248 67.8066V66.0622H134.097V67.8066H133.248ZM138.342 52.1073H137.493V50.363H138.342V52.1073ZM139.191 52.1073H138.342V50.363H139.191V52.1073ZM140.04 52.1073H139.191V50.363H140.04V52.1073ZM134.097 67.8066V66.0622H134.946V67.8066H134.097ZM138.342 50.363H137.493V48.6186H138.342V50.363ZM139.191 50.363H138.342V48.6186H139.191V50.363ZM140.04 50.363H139.191V48.6186H140.04V50.363ZM134.946 67.8066V66.0622H135.795V67.8066H134.946ZM138.342 48.6186H137.493V46.8742H138.342V48.6186ZM139.191 48.6186H138.342V46.8742H139.191V48.6186ZM140.04 48.6186H139.191V46.8742H140.04V48.6186ZM137.493 46.8742H136.644V45.1299H137.493V46.8742ZM138.342 46.8742H137.493V45.1299H138.342V46.8742ZM139.191 46.8742H138.342V45.1299H139.191V46.8742ZM140.04 46.8742H139.191V45.1299H140.04V46.8742ZM137.493 45.1299H136.644V43.3855H137.493V45.1299ZM138.342 45.1299H137.493V43.3855H138.342V45.1299ZM139.191 45.1299H138.342V43.3855H139.191V45.1299ZM140.04 45.1299H139.191V43.3855H140.04V45.1299ZM137.493 43.3855H136.644V41.6411H137.493V43.3855ZM138.342 43.3855H137.493V41.6411H138.342V43.3855ZM139.191 43.3855H138.342V41.6411H139.191V43.3855ZM140.04 43.3855H139.191V41.6411H140.04V43.3855ZM137.493 41.6411H136.644V39.8968H137.493V41.6411ZM138.342 41.6411H137.493V39.8968H138.342V41.6411ZM139.191 41.6411H138.342V39.8968H139.191V41.6411ZM140.04 41.6411H139.191V39.8968H140.04V41.6411ZM137.493 39.8968H136.644V38.1524H137.493V39.8968ZM138.342 39.8968H137.493V38.1524H138.342V39.8968ZM139.191 39.8968H138.342V38.1524H139.191V39.8968ZM140.04 39.8968H139.191V38.1524H140.04V39.8968ZM137.493 38.1524H136.644V36.4081H137.493V38.1524ZM138.342 38.1524H137.493V36.4081H138.342V38.1524ZM139.191 38.1524H138.342V36.4081H139.191V38.1524ZM140.04 38.1524H139.191V36.4081H140.04V38.1524ZM140.889 38.1524H140.04V36.4081H140.889V38.1524ZM142.587 38.1524H141.738V36.4081H142.587V38.1524ZM141.738 36.4081H140.889V34.6637H141.738V36.4081ZM142.587 36.4081H141.738V34.6637H142.587V36.4081ZM141.738 36.4081H140.889V34.6637H141.738V36.4081ZM142.587 36.4081H141.738V34.6637H142.587V36.4081ZM143.436 36.4081H142.587V34.6637H143.436V36.4081ZM144.285 34.6637H143.436V32.9193H144.285V34.6637ZM145.134 32.9193H144.285V31.175H145.134V32.9193ZM145.984 31.175H145.134V29.4306H145.984V31.175ZM146.833 29.4306H145.984V27.6862H146.833V29.4306ZM142.587 34.6637H141.738V32.9193H142.587V34.6637ZM143.436 34.6637H142.587V32.9193H143.436V34.6637ZM143.436 32.9193H142.587V31.175H143.436V32.9193ZM144.285 32.9193H143.436V31.175H144.285V32.9193ZM144.285 31.175H143.436V29.4306H144.285V31.175ZM145.134 31.175H144.285V29.4306H145.134V31.175ZM145.134 29.4306H144.285V27.6862H145.134V29.4306ZM145.984 29.4306H145.134V27.6862H145.984V29.4306ZM145.984 27.6862H145.134V25.9419H145.984V27.6862ZM146.833 27.6862H145.984V25.9419H146.833V27.6862ZM146.833 25.9419H145.984V24.1975H146.833V25.9419ZM147.682 25.9419H146.833V24.1975H147.682V25.9419ZM147.682 24.1975H146.833V22.4532H147.682V24.1975ZM146.833 24.1975H145.984V22.4532H146.833V24.1975ZM147.682 22.4532H146.833V20.7088H147.682V22.4532ZM148.531 20.7088H147.682V18.9644H148.531V20.7088ZM149.38 18.9644H148.531V17.2201H149.38V18.9644ZM150.229 17.2201H149.38V15.4757H150.229V17.2201ZM151.078 15.4757H150.229V13.7314H151.078V15.4757ZM151.927 13.7314H151.078V11.987H151.927V13.7314ZM152.776 11.987H151.927V10.2426H152.776V11.987ZM153.625 57.3404H152.776V55.596H153.625V57.3404ZM148.531 46.8742H147.682V45.1299H148.531V46.8742ZM148.531 22.4532H147.682V20.7088H148.531V22.4532ZM149.38 48.6186H148.531V46.8742H149.38V48.6186ZM149.38 20.7088H148.531V18.9644H149.38V20.7088ZM150.229 52.1073H149.38V50.363H150.229V52.1073ZM150.229 50.363H149.38V48.6186H150.229V50.363ZM145.134 67.8066H144.285V66.0622H145.134V67.8066ZM145.134 66.0622H144.285V64.3178H145.134V66.0622ZM145.984 67.8066H145.134V66.0622H145.984V67.8066ZM145.984 66.0622H145.134V64.3178H145.984V66.0622ZM152.776 67.8066H151.927V66.0622H152.776V67.8066ZM145.984 67.8066H146.833V69.5509H145.984V67.8066ZM147.682 66.0622H146.833V64.3178H147.682V66.0622ZM153.625 59.0848H152.776V57.3404H153.625V59.0848ZM154.474 60.8291H153.625V59.0848H154.474V60.8291ZM155.323 62.5735H154.474V60.8291H155.323V62.5735ZM154.474 59.0848H153.625V57.3404H154.474V59.0848ZM155.323 60.8291H154.474V59.0848H155.323V60.8291ZM156.172 62.5735H155.323V60.8291H156.172V62.5735ZM157.021 64.3178H156.172V62.5735H157.021V64.3178ZM158.719 66.0622H157.87V64.3178H158.719V66.0622ZM157.87 66.0622H157.021V64.3178H157.87V66.0622ZM150.229 8.49827H151.078V10.2426H150.229V8.49827ZM149.38 8.49827H150.229V10.2426H149.38V8.49827ZM151.078 8.49827H151.927V10.2426H151.078V8.49827ZM151.927 11.987H151.078V10.2426H151.927V11.987ZM151.927 8.49827H152.776V10.2426H151.927V8.49827ZM140.889 66.0622H140.04V64.3178H140.889V66.0622ZM141.738 38.1524H140.889V36.4081H141.738V38.1524ZM141.738 39.8968H140.889V38.1524H141.738V39.8968ZM142.587 39.8968H141.738V38.1524H142.587V39.8968ZM143.436 39.8968H142.587V38.1524H143.436V39.8968ZM143.436 38.1524H142.587V36.4081H143.436V38.1524ZM144.285 39.8968H143.436V38.1524H144.285V39.8968ZM141.738 67.8066H140.889V66.0622H141.738V67.8066ZM142.587 41.6411H141.738V39.8968H142.587V41.6411ZM143.436 41.6411H142.587V39.8968H143.436V41.6411ZM144.285 41.6411H143.436V39.8968H144.285V41.6411ZM145.134 41.6411H144.285V39.8968H145.134V41.6411ZM142.587 43.3855H141.738V41.6411H142.587V43.3855ZM143.436 43.3855H142.587V41.6411H143.436V43.3855ZM144.285 43.3855H143.436V41.6411H144.285V43.3855ZM145.134 43.3855H144.285V41.6411H145.134V43.3855ZM145.984 43.3855H145.134V41.6411H145.984V43.3855ZM143.436 45.1299H142.587V43.3855H143.436V45.1299ZM144.285 45.1299H143.436V43.3855H144.285V45.1299ZM145.134 45.1299H144.285V43.3855H145.134V45.1299ZM145.984 45.1299H145.134V43.3855H145.984V45.1299ZM146.833 45.1299H145.984V43.3855H146.833V45.1299ZM144.285 67.8066H143.436V66.0622H144.285V67.8066ZM145.134 46.8742H144.285V45.1299H145.134V46.8742ZM145.984 46.8742H145.134V45.1299H145.984V46.8742ZM146.833 46.8742H145.984V45.1299H146.833V46.8742ZM147.682 46.8742H146.833V45.1299H147.682V46.8742ZM144.285 67.8066H145.134V69.5509H144.285V67.8066ZM145.984 48.6186H145.134V46.8742H145.984V48.6186ZM146.833 48.6186H145.984V46.8742H146.833V48.6186ZM147.682 48.6186H146.833V46.8742H147.682V48.6186ZM148.531 48.6186H147.682V46.8742H148.531V48.6186ZM145.134 67.8066H145.984V69.5509H145.134V67.8066ZM146.833 50.363H145.984V48.6186H146.833V50.363ZM147.682 50.363H146.833V48.6186H147.682V50.363ZM148.531 50.363H147.682V48.6186H148.531V50.363ZM149.38 50.363H148.531V48.6186H149.38V50.363ZM146.833 52.1073H145.984V50.363H146.833V52.1073ZM147.682 52.1073H146.833V50.363H147.682V52.1073ZM148.531 52.1073H147.682V50.363H148.531V52.1073ZM149.38 52.1073H148.531V50.363H149.38V52.1073ZM150.229 53.8517H149.38V52.1073H150.229V53.8517ZM146.833 67.8066H147.682V69.5509H146.833V67.8066ZM148.531 53.8517H147.682V52.1073H148.531V53.8517ZM149.38 53.8517H148.531V52.1073H149.38V53.8517ZM150.229 55.596H149.38V53.8517H150.229V55.596ZM151.078 55.596H150.229V53.8517H151.078V55.596ZM149.38 67.8066H150.229V69.5509H149.38V67.8066ZM148.531 67.8066H149.38V69.5509H148.531V67.8066ZM147.682 67.8066H148.531V69.5509H147.682V67.8066ZM151.078 57.3404H150.229V55.596H151.078V57.3404ZM151.927 55.596H151.078V53.8517H151.927V55.596ZM148.531 66.0622H149.38V67.8066H148.531V66.0622ZM149.38 66.0622H150.229V67.8066H149.38V66.0622ZM147.682 66.0622H148.531V67.8066H147.682V66.0622ZM151.078 59.0848H150.229V57.3404H151.078V59.0848ZM151.927 57.3404H151.078V55.596H151.927V57.3404ZM146.833 66.0622H145.984V64.3178H146.833V66.0622ZM147.682 64.3178H148.531V66.0622H147.682V64.3178ZM148.531 64.3178H149.38V66.0622H148.531V64.3178ZM151.078 66.0622H150.229V64.3178H151.078V66.0622ZM151.927 59.0848H151.078V57.3404H151.927V59.0848ZM146.833 67.8066H145.984V66.0622H146.833V67.8066ZM147.682 67.8066H146.833V66.0622H147.682V67.8066ZM151.078 67.8066H150.229V66.0622H151.078V67.8066ZM147.682 62.5735H148.531V64.3178H147.682V62.5735ZM151.927 60.8291H151.078V59.0848H151.927V60.8291ZM152.776 60.8291H151.927V59.0848H152.776V60.8291ZM153.625 60.8291H152.776V59.0848H153.625V60.8291ZM154.474 62.5735H153.625V60.8291H154.474V62.5735ZM151.927 67.8066H151.078V66.0622H151.927V67.8066ZM150.229 67.8066H151.078V69.5509H150.229V67.8066ZM152.776 62.5735H151.927V60.8291H152.776V62.5735ZM153.625 62.5735H152.776V60.8291H153.625V62.5735ZM154.474 64.3178H153.625V62.5735H154.474V64.3178ZM155.323 64.3178H154.474V62.5735H155.323V64.3178ZM151.927 67.8066H152.776V69.5509H151.927V67.8066ZM151.078 67.8066H151.927V69.5509H151.078V67.8066ZM153.625 64.3178H152.776V62.5735H153.625V64.3178ZM154.474 66.0622H153.625V64.3178H154.474V66.0622ZM155.323 66.0622H154.474V64.3178H155.323V66.0622ZM156.172 64.3178H155.323V62.5735H156.172V64.3178ZM152.776 67.8066H153.625V69.5509H152.776V67.8066ZM154.474 67.8066H153.625V66.0622H154.474V67.8066ZM155.323 67.8066H154.474V66.0622H155.323V67.8066ZM156.172 66.0622H155.323V64.3178H156.172V66.0622ZM157.021 66.0622H156.172V64.3178H157.021V66.0622ZM153.625 67.8066H154.474V69.5509H153.625V67.8066ZM154.474 67.8066H155.323V69.5509H154.474V67.8066ZM156.172 67.8066H155.323V66.0622H156.172V67.8066ZM157.021 67.8066H156.172V66.0622H157.021V67.8066ZM157.87 67.8066H157.021V66.0622H157.87V67.8066ZM155.323 67.8066H156.172V69.5509H155.323V67.8066ZM156.172 67.8066H157.021V69.5509H156.172V67.8066ZM157.021 67.8066H157.87V69.5509H157.021V67.8066ZM158.719 67.8066H157.87V66.0622H158.719V67.8066ZM157.87 67.8066H158.719V69.5509H157.87V67.8066ZM158.719 67.8066H159.568V69.5509H158.719V67.8066ZM159.568 67.8066H160.417V69.5509H159.568V67.8066ZM160.417 67.8066H161.266V69.5509H160.417V67.8066ZM161.266 67.8066H162.115V69.5509H161.266V67.8066ZM137.493 36.4081H136.644V34.6637H137.493V36.4081ZM138.342 36.4081H137.493V34.6637H138.342V36.4081ZM139.191 36.4081H138.342V34.6637H139.191V36.4081ZM140.04 36.4081H139.191V34.6637H140.04V36.4081ZM137.493 34.6637H136.644V32.9193H137.493V34.6637ZM138.342 34.6637H137.493V32.9193H138.342V34.6637ZM139.191 34.6637H138.342V32.9193H139.191V34.6637ZM140.04 34.6637H139.191V32.9193H140.04V34.6637ZM137.493 32.9193H136.644V31.175H137.493V32.9193ZM138.342 32.9193H137.493V31.175H138.342V32.9193ZM139.191 32.9193H138.342V31.175H139.191V32.9193ZM140.04 32.9193H139.191V31.175H140.04V32.9193ZM137.493 31.175H136.644V29.4306H137.493V31.175ZM138.342 31.175H137.493V29.4306H138.342V31.175ZM139.191 31.175H138.342V29.4306H139.191V31.175ZM140.04 31.175H139.191V29.4306H140.04V31.175ZM137.493 29.4306H136.644V27.6862H137.493V29.4306ZM138.342 29.4306H137.493V27.6862H138.342V29.4306ZM139.191 29.4306H138.342V27.6862H139.191V29.4306ZM140.04 29.4306H139.191V27.6862H140.04V29.4306ZM137.493 27.6862H136.644V25.9419H137.493V27.6862ZM138.342 27.6862H137.493V25.9419H138.342V27.6862ZM139.191 27.6862H138.342V25.9419H139.191V27.6862ZM140.04 27.6862H139.191V25.9419H140.04V27.6862ZM137.493 25.9419H136.644V24.1975H137.493V25.9419ZM138.342 25.9419H137.493V24.1975H138.342V25.9419ZM139.191 25.9419H138.342V24.1975H139.191V25.9419ZM140.04 25.9419H139.191V24.1975H140.04V25.9419ZM137.493 24.1975H136.644V22.4532H137.493V24.1975ZM138.342 24.1975H137.493V22.4532H138.342V24.1975ZM139.191 24.1975H138.342V22.4532H139.191V24.1975ZM140.04 24.1975H139.191V22.4532H140.04V24.1975ZM137.493 22.4532H136.644V20.7088H137.493V22.4532ZM138.342 22.4532H137.493V20.7088H138.342V22.4532ZM139.191 22.4532H138.342V20.7088H139.191V22.4532ZM140.04 22.4532H139.191V20.7088H140.04V22.4532ZM137.493 20.7088H136.644V18.9644H137.493V20.7088ZM138.342 20.7088H137.493V18.9644H138.342V20.7088ZM139.191 20.7088H138.342V18.9644H139.191V20.7088ZM140.04 20.7088H139.191V18.9644H140.04V20.7088ZM137.493 18.9644H136.644V17.2201H137.493V18.9644ZM138.342 18.9644H137.493V17.2201H138.342V18.9644ZM139.191 18.9644H138.342V17.2201H139.191V18.9644ZM140.04 18.9644H139.191V17.2201H140.04V18.9644ZM137.493 17.2201H136.644V15.4757H137.493V17.2201ZM138.342 17.2201H137.493V15.4757H138.342V17.2201ZM139.191 17.2201H138.342V15.4757H139.191V17.2201ZM140.04 17.2201H139.191V15.4757H140.04V17.2201ZM137.493 15.4757H136.644V13.7314H137.493V15.4757ZM138.342 15.4757H137.493V13.7314H138.342V15.4757ZM139.191 15.4757H138.342V13.7314H139.191V15.4757ZM140.04 15.4757H139.191V13.7314H140.04V15.4757ZM137.493 13.7314H136.644V11.987H137.493V13.7314ZM138.342 13.7314H137.493V11.987H138.342V13.7314ZM139.191 13.7314H138.342V11.987H139.191V13.7314ZM140.04 13.7314H139.191V11.987H140.04V13.7314ZM137.493 11.987H136.644V10.2426H137.493V11.987ZM136.644 11.987H135.795V10.2426H136.644V11.987ZM138.342 11.987H137.493V10.2426H138.342V11.987ZM139.191 11.987H138.342V10.2426H139.191V11.987ZM140.04 11.987H139.191V10.2426H140.04V11.987ZM140.889 11.987H140.04V10.2426H140.889V11.987ZM136.644 8.49827H137.493V10.2426H136.644V8.49827ZM137.493 8.49827H138.342V10.2426H137.493V8.49827ZM138.342 8.49827H139.191V10.2426H138.342V8.49827ZM139.191 8.49827H140.04V10.2426H139.191V8.49827ZM140.04 8.49827H140.889V10.2426H140.04V8.49827ZM140.889 8.49827H141.738V10.2426H140.889V8.49827ZM141.738 8.49827H142.587V10.2426H141.738V8.49827ZM142.587 8.49827H143.436V10.2426H142.587V8.49827ZM143.436 8.49827H144.285V10.2426H143.436V8.49827ZM142.587 67.8066H143.436V69.5509H142.587V67.8066ZM143.436 67.8066H144.285V69.5509H143.436V67.8066ZM133.248 8.49827H134.097V10.2426H133.248V8.49827ZM134.097 8.49827H134.946V10.2426H134.097V8.49827ZM134.946 8.49827H135.795V10.2426H134.946V8.49827ZM135.795 8.49827H136.644V10.2426H135.795V8.49827ZM140.889 67.8066H141.738V69.5509H140.889V67.8066ZM141.738 67.8066H142.587V69.5509H141.738V67.8066Z" fill="#FF9344"/>
</svg>
